Vesper Devanagari Libre-Heavy.ufo
<glyph name="imacron" format="1">
  <advance width="698"/>
  <unicode hex="012B"/>
  <outline>
    <contour>
      <point x="89" y="1335" type="line"/>
      <point x="55" y="1131" type="line"/>
      <point x="222" y="1130"/>
      <point x="429" y="1134"/>
      <point x="596" y="1143" type="curve"/>
      <point x="628" y="1335" type="line"/>
    </contour>
    <contour>
      <point x="188" y="150" type="line"/>
      <point x="57" y="73" type="line"/>
      <point x="42" y="0" type="line"/>
      <point x="651" y="0" type="line"/>
      <point x="665" y="59" type="line"/>
      <point x="532" y="140" type="line"/>
      <point x="532" y="960" type="line"/>
      <point x="59" y="909" type="line"/>
      <point x="51" y="860" type="line"/>
      <point x="188" y="767" type="line"/>
    </contour>
  </outline>
</glyph>
<glyph name="Lslash" format="1">
  <advance width="1344"/>
  <unicode hex="0141"/>
  <outline>
    <contour>
      <point x="1364" y="354" type="line"/>
      <point x="1230" y="370" type="line"/>
      <point x="1109" y="172" type="line"/>
      <point x="690" y="99.9999" type="line"/>
      <point x="690" y="677" type="line"/>
      <point x="1163" y="898" type="line"/>
      <point x="1119" y="1092" type="line"/>
      <point x="690" y="900" type="line"/>
      <point x="690" y="1218" type="line"/>
      <point x="879" y="1299" type="line"/>
      <point x="895" y="1384" type="line"/>
      <point x="151" y="1384" type="line"/>
      <point x="133" y="1303" type="line"/>
      <point x="321" y="1221" type="line"/>
      <point x="321" y="734" type="line"/>
      <point x="51" y="613" type="line"/>
      <point x="95.9999" y="399" type="line"/>
      <point x="321" y="504" type="line"/>
      <point x="321" y="166" type="line"/>
      <point x="142" y="85" type="line"/>
      <point x="126" y="0" type="line"/>
      <point x="1282" y="0" type="line"/>
    </contour>
  </outline>
</glyph>
<glyph name="candrabindudeva" format="1">
  <advance width="0"/>
  <unicode hex="0901"/>
  <outline>
    <contour>
      <point x="302" y="1568"/>
      <point x="431" y="1686"/>
      <point x="431" y="1746" type="curve" smooth="yes"/>
      <point x="431" y="1792"/>
      <point x="309" y="1922"/>
      <point x="254" y="1922" type="curve" smooth="yes"/>
      <point x="198" y="1922"/>
      <point x="77" y="1799"/>
      <point x="77" y="1746" type="curve" smooth="yes"/>
      <point x="77" y="1688"/>
      <point x="202" y="1568"/>
      <point x="254" y="1568" type="curve" smooth="yes"/>
    </contour>
    <contour>
      <point x="-74" y="1597" type="line"/>
      <point x="31" y="1376"/>
      <point x="171" y="1296"/>
      <point x="310" y="1296" type="curve" smooth="yes"/>
      <point x="444" y="1296"/>
      <point x="578" y="1348"/>
      <point x="680" y="1513" type="curve"/>
      <point x="514" y="1672" type="line"/>
      <point x="432" y="1548"/>
      <point x="352" y="1492"/>
      <point x="261" y="1492" type="curve" smooth="yes"/>
      <point x="170" y="1492"/>
      <point x="110" y="1520"/>
      <point x="22" y="1650" type="curve"/>
    </contour>
  </outline>
</glyph>
<glyph name="iideva" format="1">
  <advance width="1137"/>
  <unicode hex="0908"/>
  <outline>
    <contour>
      <point x="720" y="589"/>
      <point x="563" y="535"/>
      <point x="477" y="535" type="curve" smooth="yes"/>
      <point x="455" y="535"/>
      <point x="442" y="535"/>
      <point x="433" y="548" type="curve"/>
      <point x="426" y="567"/>
      <point x="422" y="589"/>
      <point x="422" y="610" type="curve" smooth="yes"/>
      <point x="422" y="650"/>
      <point x="431" y="694"/>
      <point x="544" y="694" type="curve" smooth="yes"/>
      <point x="940" y="694" type="line"/>
      <point x="941" y="734"/>
      <point x="941" y="754"/>
      <point x="941" y="776" type="curve"/>
      <point x="940" y="838"/>
      <point x="935" y="912"/>
      <point x="921" y="997.999" type="curve"/>
      <point x="1189" y="997.999" type="line"/>
      <point x="1143" y="1187" type="line"/>
      <point x="856" y="1187" type="line"/>
      <point x="792" y="1270"/>
      <point x="754" y="1364"/>
      <point x="754" y="1437" type="curve" smooth="yes"/>
      <point x="754" y="1538"/>
      <point x="815" y="1584"/>
      <point x="897" y="1584" type="curve" smooth="yes"/>
      <point x="957" y="1584"/>
      <point x="1027" y="1560"/>
      <point x="1092" y="1515" type="curve"/>
      <point x="1032" y="1686" type="line"/>
      <point x="959" y="1739"/>
      <point x="895" y="1767"/>
      <point x="786" y="1767" type="curve" smooth="yes"/>
      <point x="653" y="1767"/>
      <point x="485" y="1679"/>
      <point x="485" y="1513" type="curve" smooth="yes"/>
      <point x="485" y="1397"/>
      <point x="558" y="1284"/>
      <point x="665" y="1187" type="curve"/>
      <point x="-52" y="1187" type="line"/>
      <point x="-3" y="997.999" type="line"/>
      <point x="642" y="997.999" type="line"/>
      <point x="645" y="977.999"/>
      <point x="647" y="959"/>
      <point x="647" y="939" type="curve" smooth="yes"/>
      <point x="647" y="917"/>
      <point x="645" y="895"/>
      <point x="640" y="874" type="curve"/>
      <point x="377" y="874" type="line" smooth="yes"/>
      <point x="272" y="874"/>
      <point x="122" y="846"/>
      <point x="122" y="674" type="curve" smooth="yes"/>
      <point x="122" y="570"/>
      <point x="279" y="312"/>
      <point x="569" y="312" type="curve" smooth="yes"/>
      <point x="663" y="312"/>
      <point x="779" y="360"/>
      <point x="820" y="360" type="curve" smooth="yes"/>
      <point x="823" y="360"/>
      <point x="824" y="343"/>
      <point x="824" y="336" type="curve" smooth="yes"/>
      <point x="824" y="234"/>
      <point x="624" y="196"/>
      <point x="502" y="196" type="curve" smooth="yes"/>
      <point x="460" y="196"/>
      <point x="408" y="202"/>
      <point x="383" y="213" type="curve"/>
      <point x="340" y="278"/>
      <point x="287" y="348"/>
      <point x="248" y="348" type="curve" smooth="yes"/>
      <point x="166" y="348"/>
      <point x="60" y="205"/>
      <point x="60" y="131" type="curve"/>
      <point x="64" y="72"/>
      <point x="185" y="0"/>
      <point x="353" y="-25" type="curve"/>
      <point x="479" y="-263"/>
      <point x="571" y="-353"/>
      <point x="743" y="-353" type="curve" smooth="yes"/>
      <point x="804" y="-353"/>
      <point x="875" y="-336"/>
      <point x="937" y="-296" type="curve"/>
      <point x="836" y="-88" type="line"/>
      <point x="788" y="-113"/>
      <point x="755" y="-124"/>
      <point x="710" y="-124" type="curve" smooth="yes"/>
      <point x="626" y="-124"/>
      <point x="563" y="-103"/>
      <point x="506" y="-35" type="curve"/>
      <point x="843" y="-31"/>
      <point x="1071" y="48"/>
      <point x="1071" y="312" type="curve" smooth="yes"/>
      <point x="1071" y="437"/>
      <point x="948" y="589"/>
      <point x="831" y="589" type="curve" smooth="yes"/>
    </contour>
  </outline>
</glyph>
<glyph name="audeva" format="1">
  <advance width="2079"/>
  <unicode hex="0914"/>
  <outline>
    <contour>
      <point x="2131" y="997.999" type="line"/>
      <point x="2085" y="1187" type="line"/>
      <point x="1889" y="1187" type="line"/>
      <point x="1814" y="1462"/>
      <point x="1717" y="1677"/>
      <point x="1601" y="1764" type="curve" smooth="yes"/>
      <point x="1545" y="1806"/>
      <point x="1450" y="1848"/>
      <point x="1340" y="1850" type="curve" smooth="yes"/>
      <point x="1265" y="1851"/>
      <point x="1192" y="1843"/>
      <point x="1124" y="1817" type="curve"/>
      <point x="1186" y="1581" type="line"/>
      <point x="1218" y="1589"/>
      <point x="1298" y="1607"/>
      <point x="1353" y="1607" type="curve" smooth="yes"/>
      <point x="1397" y="1607"/>
      <point x="1444" y="1604"/>
      <point x="1484" y="1592" type="curve"/>
      <point x="1550" y="1547"/>
      <point x="1667" y="1388"/>
      <point x="1749" y="1216" type="curve"/>
      <point x="1637" y="1341"/>
      <point x="1575" y="1406"/>
      <point x="1506" y="1458" type="curve" smooth="yes"/>
      <point x="1442" y="1505"/>
      <point x="1372" y="1528"/>
      <point x="1283" y="1530" type="curve" smooth="yes"/>
      <point x="1208" y="1532"/>
      <point x="1155" y="1523"/>
      <point x="1083" y="1495" type="curve"/>
      <point x="1157" y="1278" type="line"/>
      <point x="1210" y="1292"/>
      <point x="1267" y="1303"/>
      <point x="1323" y="1303" type="curve" smooth="yes"/>
      <point x="1359" y="1303"/>
      <point x="1396" y="1299"/>
      <point x="1431" y="1288" type="curve"/>
      <point x="1489" y="1263"/>
      <point x="1543" y="1234"/>
      <point x="1615" y="1187" type="curve"/>
      <point x="942" y="1187" type="line"/>
      <point x="991.999" y="997.999" type="line"/>
      <point x="1140" y="997.999" type="line"/>
      <point x="1140" y="705" type="line"/>
      <point x="1063" y="613"/>
      <point x="963" y="559"/>
      <point x="871" y="559" type="curve" smooth="yes"/>
      <point x="836" y="559"/>
      <point x="800" y="565"/>
      <point x="766" y="576" type="curve"/>
      <point x="854" y="644"/>
      <point x="895" y="735"/>
      <point x="895" y="854" type="curve" smooth="yes"/>
      <point x="895" y="1019"/>
      <point x="734" y="1210"/>
      <point x="539" y="1210" type="curve" smooth="yes"/>
      <point x="405" y="1210"/>
      <point x="263" y="1141"/>
      <point x="159" y="1024" type="curve"/>
      <point x="360" y="819" type="line"/>
      <point x="458" y="935"/>
      <point x="582" y="1013"/>
      <point x="669" y="1013" type="curve" smooth="yes"/>
      <point x="699" y="1013"/>
      <point x="720" y="1009"/>
      <point x="726" y="1001" type="curve"/>
      <point x="731" y="994.999"/>
      <point x="733" y="982.999"/>
      <point x="733" y="964" type="curve" smooth="yes"/>
      <point x="731" y="868"/>
      <point x="578" y="764"/>
      <point x="350" y="703" type="curve"/>
      <point x="484" y="460" type="line"/>
      <point x="558" y="476"/>
      <point x="622" y="496"/>
      <point x="675" y="521" type="curve"/>
      <point x="708" y="479"/>
      <point x="723" y="433"/>
      <point x="723" y="381" type="curve" smooth="yes"/>
      <point x="723" y="283"/>
      <point x="645" y="218"/>
      <point x="533" y="218" type="curve" smooth="yes"/>
      <point x="390" y="218"/>
      <point x="268" y="319"/>
      <point x="142" y="540" type="curve"/>
      <point x="26" y="477" type="line"/>
      <point x="168" y="144"/>
      <point x="376" y="-30"/>
      <point x="625" y="-30" type="curve" smooth="yes"/>
      <point x="809" y="-30"/>
      <point x="984.999" y="67"/>
      <point x="984.999" y="275" type="curve" smooth="yes"/>
      <point x="984.999" y="338"/>
      <point x="966" y="390"/>
      <point x="934" y="435" type="curve"/>
      <point x="969.999" y="424"/>
      <point x="1005" y="417"/>
      <point x="1036" y="417" type="curve" smooth="yes"/>
      <point x="1078" y="417"/>
      <point x="1105" y="421"/>
      <point x="1140" y="434" type="curve"/>
      <point x="1140" y="-42" type="line"/>
      <point x="1437" y="-94.9999" type="line"/>
      <point x="1437" y="997.999" type="line"/>
      <point x="1630" y="997.999" type="line"/>
      <point x="1630" y="-42" type="line"/>
      <point x="1927" y="-92" type="line"/>
      <point x="1927" y="997.999" type="line"/>
    </contour>
  </outline>
</glyph>
<glyph name="ddhadeva" format="1">
  <advance width="1290"/>
  <unicode hex="0922"/>
  <outline>
    <contour>
      <point x="1042" y="696" type="line"/>
      <point x="1051" y="850"/>
      <point x="1037" y="928"/>
      <point x="1017" y="997.999" type="curve"/>
      <point x="1342" y="997.999" type="line"/>
      <point x="1296" y="1187" type="line"/>
      <point x="-52" y="1187" type="line"/>
      <point x="-3" y="997.999" type="line"/>
      <point x="752" y="997.999" type="line"/>
      <point x="754" y="980.999"/>
      <point x="753" y="963"/>
      <point x="753" y="942" type="curve" smooth="yes"/>
      <point x="753" y="925"/>
      <point x="749" y="900"/>
      <point x="746" y="880" type="curve"/>
      <point x="558" y="880" type="line" smooth="yes"/>
      <point x="317" y="880"/>
      <point x="79" y="802"/>
      <point x="79" y="524" type="curve" smooth="yes"/>
      <point x="79" y="355"/>
      <point x="177" y="225"/>
      <point x="309" y="129" type="curve" smooth="yes"/>
      <point x="422" y="47"/>
      <point x="572" y="0.999999"/>
      <point x="750" y="0.999999" type="curve" smooth="yes"/>
      <point x="1040" y="0.999999"/>
      <point x="1203" y="142"/>
      <point x="1203" y="313" type="curve" smooth="yes"/>
      <point x="1203" y="449"/>
      <point x="965" y="611"/>
      <point x="792" y="611" type="curve" smooth="yes"/>
      <point x="624" y="611"/>
      <point x="515" y="523"/>
      <point x="515" y="403" type="curve" smooth="yes"/>
      <point x="515" y="319"/>
      <point x="564" y="252"/>
      <point x="632" y="181" type="curve"/>
      <point x="555" y="167"/>
      <point x="453" y="175"/>
      <point x="441" y="188" type="curve"/>
      <point x="416" y="212"/>
      <point x="375" y="316"/>
      <point x="375" y="442" type="curve" smooth="yes"/>
      <point x="375" y="679"/>
      <point x="539" y="696"/>
      <point x="736" y="696" type="curve" smooth="yes"/>
    </contour>
    <contour>
      <point x="728" y="387"/>
      <point x="820" y="453"/>
      <point x="931" y="457" type="curve"/>
      <point x="945" y="458"/>
      <point x="968.999" y="454"/>
      <point x="974.999" y="449" type="curve"/>
      <point x="978.999" y="446"/>
      <point x="988.999" y="417"/>
      <point x="988.999" y="392" type="curve" smooth="yes"/>
      <point x="988.999" y="263"/>
      <point x="850" y="216"/>
      <point x="749" y="203" type="curve"/>
    </contour>
  </outline>
</glyph>
<glyph name="padeva" format="1">
  <advance width="1174"/>
  <unicode hex="092A"/>
  <outline>
    <contour>
      <point x="756" y="-43" type="line"/>
      <point x="1053" y="-97.9999" type="line"/>
      <point x="1053" y="997.999" type="line"/>
      <point x="1226" y="997.999" type="line"/>
      <point x="1180" y="1187" type="line"/>
      <point x="-52" y="1187" type="line"/>
      <point x="-5" y="997.999" type="line"/>
      <point x="122" y="997.999" type="line"/>
      <point x="122" y="630" type="line" smooth="yes"/>
      <point x="122" y="388"/>
      <point x="395" y="263"/>
      <point x="570" y="263" type="curve" smooth="yes"/>
      <point x="643" y="263"/>
      <point x="695" y="275"/>
      <point x="756" y="297" type="curve"/>
    </contour>
    <contour>
      <point x="419" y="997.999" type="line"/>
      <point x="756" y="997.999" type="line"/>
      <point x="756" y="626" type="line"/>
      <point x="725" y="529"/>
      <point x="614" y="438"/>
      <point x="504" y="426" type="curve" smooth="yes"/>
      <point x="479" y="423"/>
      <point x="452" y="422"/>
      <point x="448" y="428" type="curve" smooth="yes"/>
      <point x="437" y="445"/>
      <point x="419" y="519"/>
      <point x="419" y="623" type="curve" smooth="yes"/>
    </contour>
  </outline>
</glyph>
<glyph name="ocandravowelsigndeva" format="1">
  <advance width="610"/>
  <unicode hex="0949"/>
  <outline>
    <contour>
      <point x="-82" y="1597" type="line"/>
      <point x="23" y="1376"/>
      <point x="163" y="1296"/>
      <point x="302" y="1296" type="curve" smooth="yes"/>
      <point x="436" y="1296"/>
      <point x="570" y="1348"/>
      <point x="672" y="1513" type="curve"/>
      <point x="506" y="1672" type="line"/>
      <point x="424" y="1548"/>
      <point x="344" y="1492"/>
      <point x="253" y="1492" type="curve" smooth="yes"/>
      <point x="162" y="1492"/>
      <point x="102" y="1520"/>
      <point x="14" y="1650" type="curve"/>
    </contour>
    <contour>
      <point x="6" y="997.999" type="line"/>
      <point x="161" y="997.999" type="line"/>
      <point x="161" y="-42" type="line"/>
      <point x="458" y="-92" type="line"/>
      <point x="458" y="997.999" type="line"/>
      <point x="662" y="997.999" type="line"/>
      <point x="616" y="1187" type="line"/>
      <point x="-43" y="1187" type="line"/>
    </contour>
  </outline>
</glyph>
<glyph name="dbldanda-deva" format="1">
  <advance width="1204"/>
  <unicode hex="0965"/>
  <outline>
    <contour>
      <point x="502" y="1191" type="line"/>
      <point x="200" y="1247" type="line"/>
      <point x="200" y="-167" type="line"/>
      <point x="502" y="-223" type="line"/>
    </contour>
    <contour>
      <point x="1004" y="1191" type="line"/>
      <point x="702" y="1247" type="line"/>
      <point x="702" y="-167" type="line"/>
      <point x="1004" y="-223" type="line"/>
    </contour>
  </outline>
</glyph>
<glyph name="uni0976" format="1">
  <advance width="1620"/>
  <unicode hex="0976"/>
  <outline>
    <contour>
      <point x="1672" y="997.999" type="line"/>
      <point x="1624" y="1187" type="line"/>
      <point x="942" y="1187" type="line"/>
      <point x="991.999" y="997.999" type="line"/>
      <point x="1140" y="997.999" type="line"/>
      <point x="1140" y="705" type="line"/>
      <point x="1063" y="613"/>
      <point x="963" y="559"/>
      <point x="871" y="559" type="curve" smooth="yes"/>
      <point x="836" y="559"/>
      <point x="800" y="565"/>
      <point x="766" y="576" type="curve"/>
      <point x="854" y="644"/>
      <point x="895" y="735"/>
      <point x="895" y="854" type="curve" smooth="yes"/>
      <point x="895" y="1019"/>
      <point x="734" y="1210"/>
      <point x="539" y="1210" type="curve" smooth="yes"/>
      <point x="405" y="1210"/>
      <point x="263" y="1141"/>
      <point x="159" y="1024" type="curve"/>
      <point x="360" y="819" type="line"/>
      <point x="458" y="935"/>
      <point x="582" y="1013"/>
      <point x="669" y="1013" type="curve" smooth="yes"/>
      <point x="699" y="1013"/>
      <point x="720" y="1009"/>
      <point x="726" y="1001" type="curve"/>
      <point x="731" y="994.999"/>
      <point x="733" y="982.999"/>
      <point x="733" y="964" type="curve" smooth="yes"/>
      <point x="731" y="868"/>
      <point x="578" y="764"/>
      <point x="350" y="703" type="curve"/>
      <point x="484" y="460" type="line"/>
      <point x="558" y="476"/>
      <point x="622" y="496"/>
      <point x="675" y="521" type="curve"/>
      <point x="708" y="479"/>
      <point x="723" y="433"/>
      <point x="723" y="381" type="curve" smooth="yes"/>
      <point x="723" y="283"/>
      <point x="645" y="218"/>
      <point x="533" y="218" type="curve" smooth="yes"/>
      <point x="390" y="218"/>
      <point x="268" y="319"/>
      <point x="142" y="540" type="curve"/>
      <point x="26" y="477" type="line"/>
      <point x="168" y="144"/>
      <point x="376" y="-30"/>
      <point x="625" y="-30" type="curve" smooth="yes"/>
      <point x="809" y="-30"/>
      <point x="984.999" y="67"/>
      <point x="984.999" y="275" type="curve" smooth="yes"/>
      <point x="984.999" y="338"/>
      <point x="966" y="390"/>
      <point x="934" y="435" type="curve"/>
      <point x="969.999" y="424"/>
      <point x="1005" y="417"/>
      <point x="1036" y="417" type="curve" smooth="yes"/>
      <point x="1078" y="417"/>
      <point x="1105" y="421"/>
      <point x="1140" y="434" type="curve"/>
      <point x="1140" y="-42" type="line"/>
      <point x="1437" y="-94.9999" type="line"/>
      <point x="1437" y="997.999" type="line"/>
    </contour>
    <contour>
      <point x="928" y="-427"/>
      <point x="1070" y="-364"/>
      <point x="1177" y="-207" type="curve"/>
      <point x="1027" y="-60" type="line"/>
      <point x="923" y="-190"/>
      <point x="813" y="-238"/>
      <point x="718" y="-238" type="curve" smooth="yes"/>
      <point x="629" y="-238"/>
      <point x="540" y="-215"/>
      <point x="443" y="-87" type="curve"/>
      <point x="354" y="-148" type="line"/>
      <point x="475" y="-355"/>
      <point x="625" y="-425"/>
      <point x="787" y="-426" type="curve" smooth="yes"/>
    </contour>
    <contour>
      <point x="659" y="-578"/>
      <point x="570" y="-555"/>
      <point x="473" y="-427" type="curve"/>
      <point x="384" y="-488" type="line"/>
      <point x="505" y="-695"/>
      <point x="655" y="-765"/>
      <point x="817" y="-766" type="curve" smooth="yes"/>
      <point x="958" y="-767"/>
      <point x="1100" y="-704"/>
      <point x="1207" y="-547" type="curve"/>
      <point x="1057" y="-400" type="line"/>
      <point x="953" y="-530"/>
      <point x="843" y="-578"/>
      <point x="748" y="-578" type="curve" smooth="yes"/>
    </contour>
  </outline>
</glyph>
<glyph name="dhadeva_viramadeva_radeva" format="1">
  <advance width="1429"/>
  <outline>
    <contour>
      <point x="1481" y="997.999" type="line"/>
      <point x="1435" y="1187" type="line"/>
      <point x="776" y="1187" type="line"/>
      <point x="825" y="997.999" type="line"/>
      <point x="979.999" y="997.999" type="line"/>
      <point x="979.999" y="570" type="line"/>
      <point x="855" y="389"/>
      <point x="724" y="279"/>
      <point x="545" y="279" type="curve" smooth="yes"/>
      <point x="519" y="279"/>
      <point x="474" y="285"/>
      <point x="470" y="294" type="curve"/>
      <point x="464" y="304"/>
      <point x="451" y="338"/>
      <point x="451" y="395" type="curve" smooth="yes"/>
      <point x="451" y="497"/>
      <point x="537" y="569"/>
      <point x="751" y="569" type="curve"/>
      <point x="648" y="812" type="line"/>
      <point x="531" y="813"/>
      <point x="451" y="797"/>
      <point x="388" y="768" type="curve"/>
      <point x="361" y="807"/>
      <point x="355" y="846"/>
      <point x="355" y="884" type="curve" smooth="yes"/>
      <point x="355" y="975.999"/>
      <point x="428" y="1035"/>
      <point x="533" y="1035" type="curve" smooth="yes"/>
      <point x="578" y="1035"/>
      <point x="618" y="1025"/>
      <point x="697" y="992.999" type="curve"/>
      <point x="611" y="1198" type="line"/>
      <point x="541" y="1233"/>
      <point x="475" y="1248"/>
      <point x="406" y="1248" type="curve" smooth="yes"/>
      <point x="232" y="1248"/>
      <point x="70" y="1165"/>
      <point x="70" y="993.999" type="curve" smooth="yes"/>
      <point x="70" y="868"/>
      <point x="154" y="775"/>
      <point x="299" y="712" type="curve"/>
      <point x="218" y="643"/>
      <point x="188" y="552"/>
      <point x="188" y="488" type="curve" smooth="yes"/>
      <point x="188" y="301"/>
      <point x="372" y="168"/>
      <point x="535" y="121" type="curve"/>
      <point x="354" y="18" type="line"/>
      <point x="543" y="-192" type="line"/>
      <point x="979.999" y="179" type="line"/>
      <point x="979.999" y="-42" type="line"/>
      <point x="1277" y="-92" type="line"/>
      <point x="1277" y="997.999" type="line"/>
    </contour>
  </outline>
</glyph>
<glyph name="fadeva_viramadeva" format="1">
  <advance width="1293"/>
  <outline>
    <contour>
      <point x="1531" y="661" type="line"/>
      <point x="1452" y="754"/>
      <point x="1341" y="818"/>
      <point x="1249" y="818" type="curve" smooth="yes"/>
      <point x="1176" y="818"/>
      <point x="1103" y="799"/>
      <point x="1048" y="768" type="curve"/>
      <point x="1048" y="997.999" type="line"/>
      <point x="1365" y="997.999" type="line"/>
      <point x="1322" y="1187" type="line"/>
      <point x="-48" y="1187" type="line"/>
      <point x="-0.999999" y="997.999" type="line"/>
      <point x="137" y="997.999" type="line"/>
      <point x="137" y="597" type="line" smooth="yes"/>
      <point x="137" y="364"/>
      <point x="396" y="250"/>
      <point x="564" y="250" type="curve" smooth="yes"/>
      <point x="637" y="250"/>
      <point x="692" y="268"/>
      <point x="751" y="292" type="curve"/>
      <point x="751" y="-43" type="line"/>
      <point x="1048" y="-98.9999" type="line"/>
      <point x="1048" y="414" type="line"/>
      <point x="1139" y="530"/>
      <point x="1234" y="613"/>
      <point x="1335" y="613" type="curve" smooth="yes"/>
      <point x="1431" y="613"/>
      <point x="1498" y="553"/>
      <point x="1586" y="459" type="curve"/>
    </contour>
    <contour>
      <point x="751" y="997.999" type="line"/>
      <point x="751" y="613" type="line"/>
      <point x="715" y="519"/>
      <point x="606" y="418"/>
      <point x="513" y="416" type="curve" smooth="yes"/>
      <point x="489" y="415"/>
      <point x="464" y="417"/>
      <point x="460" y="423" type="curve"/>
      <point x="450" y="440"/>
      <point x="434" y="496"/>
      <point x="434" y="600" type="curve" smooth="yes"/>
      <point x="434" y="997.999" type="line"/>
    </contour>
    <contour>
      <point x="181" y="195"/>
      <point x="47" y="76"/>
      <point x="47" y="11" type="curve" smooth="yes"/>
      <point x="47" y="-39"/>
      <point x="175" y="-173"/>
      <point x="228" y="-173" type="curve" smooth="yes"/>
      <point x="279" y="-173"/>
      <point x="413" y="-48"/>
      <point x="413" y="11" type="curve" smooth="yes"/>
      <point x="413" y="51"/>
      <point x="299" y="195"/>
      <point x="229" y="195" type="curve" smooth="yes"/>
    </contour>
  </outline>
</glyph>
<glyph name="iiMatra_reph_anusvaradeva.02" format="1">
  <advance width="592"/>
  <outline>
    <contour>
      <point x="592" y="1187" type="line"/>
      <point x="419" y="1187" type="line"/>
      <point x="395" y="1212"/>
      <point x="370" y="1236"/>
      <point x="345" y="1258" type="curve"/>
      <point x="315" y="1301"/>
      <point x="292" y="1352"/>
      <point x="292" y="1414" type="curve" smooth="yes"/>
      <point x="293" y="1480"/>
      <point x="347" y="1549"/>
      <point x="437" y="1549" type="curve" smooth="yes"/>
      <point x="506" y="1549"/>
      <point x="558" y="1536"/>
      <point x="645" y="1481" type="curve"/>
      <point x="584" y="1656" type="line"/>
      <point x="519" y="1697"/>
      <point x="436" y="1727"/>
      <point x="331" y="1727" type="curve" smooth="yes"/>
      <point x="198" y="1727"/>
      <point x="60" y="1659"/>
      <point x="60" y="1493" type="curve"/>
      <point x="61" y="1476" type="line"/>
      <point x="-226" y="1658"/>
      <point x="-510" y="1737"/>
      <point x="-695" y="1737" type="curve" smooth="yes"/>
      <point x="-897" y="1737"/>
      <point x="-1037" y="1640"/>
      <point x="-1037" y="1474" type="curve" smooth="yes"/>
      <point x="-1037" y="1358"/>
      <point x="-964" y="1281"/>
      <point x="-877" y="1226" type="curve"/>
      <point x="-742" y="1280" type="line"/>
      <point x="-751" y="1301"/>
      <point x="-777" y="1350"/>
      <point x="-777" y="1406" type="curve" smooth="yes"/>
      <point x="-777" y="1530"/>
      <point x="-674" y="1578"/>
      <point x="-576" y="1578" type="curve" smooth="yes"/>
      <point x="-412" y="1578"/>
      <point x="-175" y="1470"/>
      <point x="121" y="1187" type="curve"/>
      <point x="-50" y="1187" type="line"/>
      <point x="-0.999999" y="997.999" type="line"/>
      <point x="145" y="997.999" type="line"/>
      <point x="145" y="-42" type="line"/>
      <point x="447" y="-97.9999" type="line"/>
      <point x="447" y="997.999" type="line"/>
      <point x="638" y="997.999" type="line"/>
    </contour>
    <contour>
      <point x="353" y="1311"/>
      <point x="450" y="1218"/>
      <point x="489" y="1218" type="curve" smooth="yes"/>
      <point x="527" y="1218"/>
      <point x="627" y="1310"/>
      <point x="627" y="1355" type="curve" smooth="yes"/>
      <point x="627" y="1391"/>
      <point x="532" y="1492"/>
      <point x="489" y="1492" type="curve" smooth="yes"/>
      <point x="447" y="1492"/>
      <point x="353" y="1397"/>
      <point x="353" y="1355" type="curve" smooth="yes"/>
    </contour>
  </outline>
</glyph>
<glyph name="jadeva_viramadeva_jadeva.alt" format="1">
  <advance width="1717"/>
  <outline>
    <contour>
      <point x="1767" y="997.999" type="line"/>
      <point x="1721" y="1187" type="line"/>
      <point x="-50" y="1187" type="line"/>
      <point x="-0.999999" y="997.999" type="line"/>
      <point x="1266" y="997.999" type="line"/>
      <point x="1266" y="858" type="line"/>
      <point x="498" y="858" type="line"/>
      <point x="531" y="707" type="line"/>
      <point x="655" y="699"/>
      <point x="698" y="672"/>
      <point x="698" y="607" type="curve" smooth="yes"/>
      <point x="698" y="546"/>
      <point x="647" y="508"/>
      <point x="571" y="508" type="curve" smooth="yes"/>
      <point x="487" y="508"/>
      <point x="333" y="531"/>
      <point x="206" y="794" type="curve"/>
      <point x="67" y="750" type="line"/>
      <point x="187" y="413"/>
      <point x="384" y="247"/>
      <point x="670" y="247" type="curve" smooth="yes"/>
      <point x="870" y="247"/>
      <point x="997.999" y="346"/>
      <point x="997.999" y="481" type="curve" smooth="yes"/>
      <point x="997.999" y="573"/>
      <point x="935" y="643"/>
      <point x="813" y="668" type="curve"/>
      <point x="1266" y="668" type="line"/>
      <point x="1266" y="381" type="line"/>
      <point x="506" y="82" type="line"/>
      <point x="584" y="-49" type="line"/>
      <point x="742" y="-9.99999"/>
      <point x="799" y="-35"/>
      <point x="799" y="-116" type="curve" smooth="yes"/>
      <point x="799" y="-185"/>
      <point x="742" y="-220"/>
      <point x="641" y="-230" type="curve"/>
      <point x="564" y="-234"/>
      <point x="441" y="-225"/>
      <point x="257" y="-44" type="curve"/>
      <point x="145" y="-136" type="line"/>
      <point x="388" y="-422"/>
      <point x="609" y="-459"/>
      <point x="768" y="-450" type="curve" smooth="yes"/>
      <point x="962" y="-440"/>
      <point x="1128" y="-327"/>
      <point x="1128" y="-189" type="curve" smooth="yes"/>
      <point x="1128" y="-97.9999"/>
      <point x="1098" y="34"/>
      <point x="885" y="28" type="curve"/>
      <point x="1266" y="179" type="line"/>
      <point x="1266" y="-141" type="line"/>
      <point x="1563" y="-196" type="line"/>
      <point x="1563" y="997.999" type="line"/>
    </contour>
  </outline>
</glyph>
<glyph name="padeva_viramadeva_jhadeva" format="1">
  <advance width="2244"/>
  <outline>
    <contour>
      <point x="2296" y="997.999" type="line"/>
      <point x="2250" y="1187" type="line"/>
      <point x="-48" y="1187" type="line"/>
      <point x="-0.999999" y="997.999" type="line"/>
      <point x="126" y="997.999" type="line"/>
      <point x="126" y="710" type="line" smooth="yes"/>
      <point x="126" y="468"/>
      <point x="399" y="343"/>
      <point x="574" y="343" type="curve" smooth="yes"/>
      <point x="674" y="343"/>
      <point x="757" y="355"/>
      <point x="866" y="418" type="curve"/>
      <point x="933" y="362"/>
      <point x="1024" y="321"/>
      <point x="1142" y="321" type="curve" smooth="yes"/>
      <point x="1236" y="321"/>
      <point x="1387" y="377"/>
      <point x="1428" y="377" type="curve" smooth="yes"/>
      <point x="1431" y="377"/>
      <point x="1432" y="361"/>
      <point x="1432" y="353" type="curve" smooth="yes"/>
      <point x="1432" y="248"/>
      <point x="1275" y="196"/>
      <point x="1129" y="196" type="curve" smooth="yes"/>
      <point x="1089" y="196"/>
      <point x="1027" y="199"/>
      <point x="990.999" y="208" type="curve"/>
      <point x="949" y="273"/>
      <point x="893" y="346"/>
      <point x="855" y="346" type="curve" smooth="yes"/>
      <point x="755" y="346"/>
      <point x="659" y="197"/>
      <point x="659" y="133" type="curve" smooth="yes"/>
      <point x="659" y="75"/>
      <point x="786" y="3"/>
      <point x="954" y="-24" type="curve"/>
      <point x="1080" y="-261"/>
      <point x="1173" y="-345"/>
      <point x="1345" y="-345" type="curve" smooth="yes"/>
      <point x="1412" y="-345"/>
      <point x="1464" y="-331"/>
      <point x="1539" y="-289" type="curve"/>
      <point x="1438" y="-79" type="line"/>
      <point x="1388" y="-106"/>
      <point x="1359" y="-116"/>
      <point x="1312" y="-116" type="curve" smooth="yes"/>
      <point x="1230" y="-116"/>
      <point x="1167" y="-98.9999"/>
      <point x="1111" y="-35" type="curve"/>
      <point x="1451" y="-32"/>
      <point x="1654" y="45"/>
      <point x="1654" y="302" type="curve" smooth="yes"/>
      <point x="1654" y="317"/>
      <point x="1652" y="332"/>
      <point x="1649" y="348" type="curve"/>
      <point x="1682" y="334"/>
      <point x="1716" y="325"/>
      <point x="1750" y="325" type="curve" smooth="yes"/>
      <point x="1781" y="325"/>
      <point x="1811" y="331"/>
      <point x="1836" y="342" type="curve"/>
      <point x="1836" y="-44" type="line"/>
      <point x="2121" y="-102" type="line"/>
      <point x="2121" y="997.999" type="line"/>
    </contour>
    <contour>
      <point x="724" y="659"/>
      <point x="727" y="641"/>
      <point x="732" y="621" type="curve"/>
      <point x="666" y="560"/>
      <point x="593" y="514"/>
      <point x="508" y="505" type="curve" smooth="yes"/>
      <point x="483" y="502"/>
      <point x="459" y="504"/>
      <point x="453" y="510" type="curve" smooth="yes"/>
      <point x="436" y="527"/>
      <point x="423" y="599"/>
      <point x="423" y="703" type="curve" smooth="yes"/>
      <point x="423" y="997.999" type="line"/>
      <point x="1245" y="997.999" type="line"/>
      <point x="1247" y="978.999"/>
      <point x="1249" y="957"/>
      <point x="1249" y="939" type="curve" smooth="yes"/>
      <point x="1249" y="917"/>
      <point x="1247" y="895"/>
      <point x="1242" y="874" type="curve"/>
      <point x="979.999" y="874" type="line" smooth="yes"/>
      <point x="875" y="874"/>
      <point x="724" y="846"/>
      <point x="724" y="674" type="curve" smooth="yes"/>
    </contour>
    <contour>
      <point x="1610" y="493"/>
      <point x="1590" y="497"/>
      <point x="1571" y="503" type="curve"/>
      <point x="1545" y="533"/>
      <point x="1515" y="557"/>
      <point x="1483" y="572" type="curve" smooth="yes"/>
      <point x="1461" y="583"/>
      <point x="1437" y="589"/>
      <point x="1414" y="589" type="curve" smooth="yes"/>
      <point x="1303" y="589"/>
      <point x="1166" y="537"/>
      <point x="1080" y="537" type="curve" smooth="yes"/>
      <point x="1057" y="537"/>
      <point x="1044" y="539"/>
      <point x="1036" y="552" type="curve"/>
      <point x="1029" y="571"/>
      <point x="1025" y="598"/>
      <point x="1025" y="619" type="curve" smooth="yes"/>
      <point x="1025" y="659"/>
      <point x="1034" y="694"/>
      <point x="1146" y="694" type="curve" smooth="yes"/>
      <point x="1542" y="694" type="line"/>
      <point x="1544" y="735"/>
      <point x="1544" y="754"/>
      <point x="1544" y="776" type="curve"/>
      <point x="1543" y="837"/>
      <point x="1537" y="914"/>
      <point x="1525" y="997.999" type="curve"/>
      <point x="1836" y="997.999" type="line"/>
      <point x="1836" y="611" type="line"/>
      <point x="1797" y="550"/>
      <point x="1721" y="493"/>
      <point x="1630" y="493" type="curve" smooth="yes"/>
    </contour>
  </outline>
</glyph>
<glyph name="padeva_viramadeva_tadeva" format="1">
  <advance width="1850"/>
  <outline>
    <contour>
      <point x="1902" y="997.999" type="line"/>
      <point x="1853" y="1187" type="line"/>
      <point x="-48" y="1187" type="line"/>
      <point x="-0.999999" y="997.999" type="line"/>
      <point x="126" y="997.999" type="line"/>
      <point x="126" y="630" type="line" smooth="yes"/>
      <point x="126" y="388"/>
      <point x="399" y="263"/>
      <point x="574" y="263" type="curve" smooth="yes"/>
      <point x="641" y="263"/>
      <point x="700" y="268"/>
      <point x="763" y="290" type="curve"/>
      <point x="826" y="173"/>
      <point x="931" y="43"/>
      <point x="1074" y="-101" type="curve"/>
      <point x="1207" y="-36" type="line"/>
      <point x="1054" y="195"/>
      <point x="1027" y="335"/>
      <point x="1027" y="438" type="curve" smooth="yes"/>
      <point x="1027" y="534"/>
      <point x="1084" y="603"/>
      <point x="1213" y="603" type="curve" smooth="yes"/>
      <point x="1430" y="603" type="line"/>
      <point x="1430" y="-40" type="line"/>
      <point x="1727" y="-99.9999" type="line"/>
      <point x="1727" y="997.999" type="line"/>
    </contour>
    <contour>
      <point x="1430" y="823" type="line"/>
      <point x="1064" y="823" type="line" smooth="yes"/>
      <point x="793" y="823"/>
      <point x="700" y="681"/>
      <point x="700" y="513" type="curve"/>
      <point x="642" y="466"/>
      <point x="579" y="433"/>
      <point x="508" y="425" type="curve" smooth="yes"/>
      <point x="483" y="422"/>
      <point x="459" y="424"/>
      <point x="453" y="430" type="curve" smooth="yes"/>
      <point x="436" y="447"/>
      <point x="423" y="519"/>
      <point x="423" y="623" type="curve" smooth="yes"/>
      <point x="423" y="997.999" type="line"/>
      <point x="1430" y="997.999" type="line"/>
    </contour>
  </outline>
</glyph>
<glyph name="radeva_uuvowelsigndeva" format="1">
  <advance width="1259"/>
  <outline>
    <contour>
      <point x="753" y="830"/>
      <point x="735" y="829"/>
      <point x="718" y="827" type="curve"/>
      <point x="713" y="876"/>
      <point x="703" y="933"/>
      <point x="681" y="997.999" type="curve"/>
      <point x="1299" y="997.999" type="line"/>
      <point x="1257" y="1187" type="line"/>
      <point x="-34" y="1187" type="line"/>
      <point x="17" y="997.999" type="line"/>
      <point x="465" y="997.999" type="line"/>
      <point x="470" y="966"/>
      <point x="473" y="936"/>
      <point x="473" y="908" type="curve" smooth="yes"/>
      <point x="474" y="819"/>
      <point x="434" y="733"/>
      <point x="317" y="658" type="curve"/>
      <point x="222" y="716" type="line"/>
      <point x="54" y="615" type="line"/>
      <point x="210" y="258"/>
      <point x="372" y="86"/>
      <point x="610" y="-126" type="curve"/>
      <point x="768" y="117" type="line"/>
      <point x="633" y="167"/>
      <point x="515" y="203"/>
      <point x="362" y="326" type="curve"/>
      <point x="428" y="355"/>
      <point x="481" y="385"/>
      <point x="525" y="415" type="curve"/>
      <point x="580" y="309"/>
      <point x="684" y="246"/>
      <point x="806" y="245" type="curve" smooth="yes"/>
      <point x="837" y="245"/>
      <point x="878" y="246"/>
      <point x="935" y="260" type="curve"/>
      <point x="904" y="476" type="line"/>
      <point x="851" y="463"/>
      <point x="818" y="461"/>
      <point x="784" y="462" type="curve" smooth="yes"/>
      <point x="721" y="463"/>
      <point x="662" y="480"/>
      <point x="645" y="510" type="curve"/>
      <point x="644" y="512"/>
      <point x="643" y="515"/>
      <point x="643" y="520" type="curve"/>
      <point x="664" y="546"/>
      <point x="680" y="574"/>
      <point x="691" y="601" type="curve"/>
      <point x="714" y="614"/>
      <point x="742" y="619"/>
      <point x="774" y="619" type="curve" smooth="yes"/>
      <point x="898" y="619"/>
      <point x="998.999" y="511"/>
      <point x="1117" y="270" type="curve"/>
      <point x="1224" y="317" type="line"/>
      <point x="1212" y="366"/>
      <point x="1188" y="434"/>
      <point x="1158" y="502" type="curve" smooth="yes"/>
      <point x="1060" y="720"/>
      <point x="949" y="830"/>
      <point x="771" y="830" type="curve" smooth="yes"/>
    </contour>
  </outline>
</glyph>
<glyph name="radeva_uvowelsigndeva" format="1">
  <advance width="1134"/>
  <outline>
    <contour>
      <point x="720" y="772" type="line" smooth="yes"/>
      <point x="720" y="830"/>
      <point x="712" y="907"/>
      <point x="681" y="997.999" type="curve"/>
      <point x="1179" y="997.999" type="line"/>
      <point x="1137" y="1187" type="line"/>
      <point x="-34" y="1187" type="line"/>
      <point x="17" y="997.999" type="line"/>
      <point x="465" y="997.999" type="line"/>
      <point x="470" y="966"/>
      <point x="473" y="936"/>
      <point x="473" y="908" type="curve" smooth="yes"/>
      <point x="474" y="819"/>
      <point x="434" y="733"/>
      <point x="317" y="658" type="curve"/>
      <point x="222" y="716" type="line"/>
      <point x="54" y="615" type="line"/>
      <point x="210" y="258"/>
      <point x="372" y="86"/>
      <point x="610" y="-126" type="curve"/>
      <point x="768" y="117" type="line"/>
      <point x="633" y="167"/>
      <point x="515" y="203"/>
      <point x="362" y="326" type="curve"/>
      <point x="494" y="385"/>
      <point x="579" y="445"/>
      <point x="632" y="506" type="curve"/>
      <point x="670" y="541"/>
      <point x="719" y="576"/>
      <point x="782" y="594" type="curve" smooth="yes"/>
      <point x="808" y="601"/>
      <point x="828" y="602"/>
      <point x="844" y="595" type="curve"/>
      <point x="847" y="594"/>
      <point x="852" y="583"/>
      <point x="850" y="555" type="curve" smooth="yes"/>
      <point x="841" y="470"/>
      <point x="781" y="424"/>
      <point x="648" y="310" type="curve"/>
      <point x="861" y="130" type="line"/>
      <point x="973.999" y="227"/>
      <point x="1025" y="310"/>
      <point x="1034" y="410" type="curve" smooth="yes"/>
      <point x="1047" y="574"/>
      <point x="874" y="743"/>
      <point x="720" y="763" type="curve"/>
    </contour>
  </outline>
</glyph>
<glyph name="radeva_viramadeva_anusvaradeva" format="1">
  <advance width="0"/>
  <outline>
    <contour>
      <point x="377" y="1182" type="line"/>
      <point x="296" y="1273"/>
      <point x="246" y="1384"/>
      <point x="246" y="1467" type="curve" smooth="yes"/>
      <point x="246" y="1568"/>
      <point x="307" y="1614"/>
      <point x="389" y="1614" type="curve" smooth="yes"/>
      <point x="449" y="1614"/>
      <point x="519" y="1590"/>
      <point x="584" y="1545" type="curve"/>
      <point x="524" y="1716" type="line"/>
      <point x="451" y="1769"/>
      <point x="387" y="1797"/>
      <point x="278" y="1797" type="curve" smooth="yes"/>
      <point x="145" y="1797"/>
      <point x="-23" y="1709"/>
      <point x="-23" y="1543" type="curve" smooth="yes"/>
      <point x="-23" y="1397"/>
      <point x="92" y="1257"/>
      <point x="246" y="1145" type="curve"/>
    </contour>
    <contour>
      <point x="494" y="1265"/>
      <point x="600" y="1362"/>
      <point x="600" y="1411" type="curve" smooth="yes"/>
      <point x="600" y="1449"/>
      <point x="500" y="1557"/>
      <point x="454" y="1557" type="curve" smooth="yes"/>
      <point x="408" y="1557"/>
      <point x="308" y="1455"/>
      <point x="308" y="1411" type="curve" smooth="yes"/>
      <point x="308" y="1364"/>
      <point x="412" y="1265"/>
      <point x="454" y="1265" type="curve" smooth="yes"/>
    </contour>
  </outline>
</glyph>
<glyph name="rradeva_viramadeva_hadeva" format="1">
  <advance width="1658"/>
  <outline>
    <contour>
      <point x="1064" y="548"/>
      <point x="991.999" y="539"/>
      <point x="924" y="519" type="curve"/>
      <point x="921" y="541"/>
      <point x="920" y="559"/>
      <point x="923" y="583" type="curve" smooth="yes"/>
      <point x="933" y="649"/>
      <point x="980.999" y="672"/>
      <point x="1073" y="672" type="curve" smooth="yes"/>
      <point x="1451" y="672" type="line"/>
      <point x="1458" y="715"/>
      <point x="1459" y="757"/>
      <point x="1459" y="799" type="curve" smooth="yes"/>
      <point x="1459" y="864"/>
      <point x="1448" y="929"/>
      <point x="1432" y="997.999" type="curve"/>
      <point x="1698" y="997.999" type="line"/>
      <point x="1651" y="1187" type="line"/>
      <point x="-51" y="1187" type="line"/>
      <point x="-0.999999" y="997.999" type="line"/>
      <point x="1163" y="997.999" type="line"/>
      <point x="1167" y="970.999"/>
      <point x="1169" y="945"/>
      <point x="1169" y="919" type="curve" smooth="yes"/>
      <point x="1169" y="900"/>
      <point x="1168" y="881"/>
      <point x="1166" y="862" type="curve"/>
      <point x="924" y="862" type="line" smooth="yes"/>
      <point x="779" y="862"/>
      <point x="653" y="826"/>
      <point x="653" y="693" type="curve" smooth="yes"/>
      <point x="653" y="658"/>
      <point x="668" y="622"/>
      <point x="693" y="588" type="curve"/>
      <point x="612" y="538"/>
      <point x="540" y="523"/>
      <point x="448" y="523" type="curve" smooth="yes"/>
      <point x="376" y="523"/>
      <point x="241" y="538"/>
      <point x="137" y="662" type="curve"/>
      <point x="54" y="602" type="line"/>
      <point x="75" y="558"/>
      <point x="119" y="489"/>
      <point x="178" y="435" type="curve" smooth="yes"/>
      <point x="300" y="326"/>
      <point x="414" y="290"/>
      <point x="541" y="290" type="curve" smooth="yes"/>
      <point x="579" y="290"/>
      <point x="617" y="293"/>
      <point x="652" y="299" type="curve"/>
      <point x="644" y="273"/>
      <point x="640" y="246"/>
      <point x="640" y="217" type="curve" smooth="yes"/>
      <point x="640" y="-93.9999"/>
      <point x="974.999" y="-247"/>
      <point x="1431" y="-299" type="curve"/>
      <point x="1463" y="-180" type="line"/>
      <point x="1008" y="-95.9999"/>
      <point x="945" y="49"/>
      <point x="945" y="171" type="curve" smooth="yes"/>
      <point x="945" y="308"/>
      <point x="1077" y="383"/>
      <point x="1201" y="383" type="curve" smooth="yes"/>
      <point x="1256" y="383"/>
      <point x="1316" y="378"/>
      <point x="1357" y="353" type="curve" smooth="yes"/>
      <point x="1367" y="347"/>
      <point x="1369" y="339"/>
      <point x="1369" y="330" type="curve" smooth="yes"/>
      <point x="1369" y="281"/>
      <point x="1321" y="207"/>
      <point x="1198" y="147" type="curve"/>
      <point x="1402" y="-64" type="line"/>
      <point x="1542" y="25"/>
      <point x="1561" y="84"/>
      <point x="1561" y="175" type="curve" smooth="yes"/>
      <point x="1563" y="375"/>
      <point x="1360" y="548"/>
      <point x="1127" y="548" type="curve" smooth="yes"/>
    </contour>
  </outline>
</glyph>
<glyph name="sadeva_viramadeva_radeva" format="1">
  <advance width="1451"/>
  <outline>
    <contour>
      <point x="1503" y="997.999" type="line"/>
      <point x="1457" y="1187" type="line"/>
      <point x="-55" y="1187" type="line" smooth="yes"/>
      <point x="-62" y="1187"/>
      <point x="-66" y="1183"/>
      <point x="-66" y="1177" type="curve" smooth="yes"/>
      <point x="-66" y="1171"/>
      <point x="-60" y="1153"/>
      <point x="-23" y="1011" type="curve" smooth="yes"/>
      <point x="-20" y="999.999"/>
      <point x="-11" y="997.999"/>
      <point x="0" y="997.999" type="curve" smooth="yes"/>
      <point x="386" y="997.999" type="line"/>
      <point x="399" y="954"/>
      <point x="408" y="910"/>
      <point x="408" y="871" type="curve" smooth="yes"/>
      <point x="408" y="796"/>
      <point x="391" y="743"/>
      <point x="334" y="685" type="curve"/>
      <point x="267" y="728" type="line" smooth="yes"/>
      <point x="245" y="742"/>
      <point x="233" y="743"/>
      <point x="210" y="728" type="curve" smooth="yes"/>
      <point x="97.9999" y="657" type="line" smooth="yes"/>
      <point x="78" y="645"/>
      <point x="73" y="636"/>
      <point x="79" y="606" type="curve" smooth="yes"/>
      <point x="150" y="292"/>
      <point x="329" y="21"/>
      <point x="534" y="-134" type="curve"/>
      <point x="549" y="-144"/>
      <point x="570" y="-147"/>
      <point x="587" y="-121" type="curve" smooth="yes"/>
      <point x="624" y="-63"/>
      <point x="671" y="14"/>
      <point x="704" y="71" type="curve" smooth="yes"/>
      <point x="715" y="90"/>
      <point x="713" y="109"/>
      <point x="694" y="116" type="curve" smooth="yes"/>
      <point x="550" y="166"/>
      <point x="474" y="209"/>
      <point x="353" y="331" type="curve"/>
      <point x="427" y="366"/>
      <point x="485" y="405"/>
      <point x="530" y="446" type="curve"/>
      <point x="623" y="393"/>
      <point x="735" y="346"/>
      <point x="836" y="346" type="curve" smooth="yes"/>
      <point x="845" y="346" type="line"/>
      <point x="798" y="305"/>
      <point x="754" y="267"/>
      <point x="699" y="218" type="curve" smooth="yes"/>
      <point x="687" y="208"/>
      <point x="687" y="182"/>
      <point x="707" y="169" type="curve" smooth="yes"/>
      <point x="730" y="154"/>
      <point x="778" y="126"/>
      <point x="866" y="70" type="curve" smooth="yes"/>
      <point x="874" y="65"/>
      <point x="882" y="62"/>
      <point x="890" y="65" type="curve"/>
      <point x="899" y="68"/>
      <point x="903" y="76"/>
      <point x="911" y="88" type="curve" smooth="yes"/>
      <point x="1002" y="233" type="line"/>
      <point x="1002" y="-42" type="line"/>
      <point x="1299" y="-92" type="line"/>
      <point x="1299" y="997.999" type="line"/>
    </contour>
    <contour>
      <point x="710" y="552"/>
      <point x="669" y="559"/>
      <point x="628" y="571" type="curve"/>
      <point x="660" y="631"/>
      <point x="672" y="691"/>
      <point x="672" y="745" type="curve" smooth="yes"/>
      <point x="672" y="818"/>
      <point x="647" y="904"/>
      <point x="609" y="997.999" type="curve"/>
      <point x="1002" y="997.999" type="line"/>
      <point x="1002" y="647" type="line"/>
      <point x="905" y="574"/>
      <point x="825" y="552"/>
      <point x="746" y="552" type="curve" smooth="yes"/>
    </contour>
  </outline>
</glyph>
<glyph name="shadeva_viramadeva.loclMAR" format="1">
  <advance width="932"/>
  <outline>
    <contour>
      <point x="851" y="680"/>
      <point x="764" y="812"/>
      <point x="627" y="881" type="curve"/>
      <point x="628" y="898"/>
      <point x="629" y="913"/>
      <point x="628" y="928" type="curve" smooth="yes"/>
      <point x="626" y="951"/>
      <point x="621" y="973.999"/>
      <point x="610" y="997.999" type="curve"/>
      <point x="976.999" y="997.999" type="line"/>
      <point x="931" y="1187" type="line"/>
      <point x="-52" y="1187" type="line"/>
      <point x="-2" y="997.999" type="line"/>
      <point x="418" y="997.999" type="line"/>
      <point x="418" y="990.999"/>
      <point x="418" y="982.999"/>
      <point x="418" y="975.999" type="curve" smooth="yes"/>
      <point x="418" y="961"/>
      <point x="416" y="946"/>
      <point x="412" y="931" type="curve"/>
      <point x="298" y="929"/>
      <point x="113" y="895"/>
      <point x="9.99999" y="720" type="curve"/>
      <point x="260" y="580" type="line"/>
      <point x="364" y="750"/>
      <point x="457" y="781"/>
      <point x="524" y="781" type="curve" smooth="yes"/>
      <point x="556" y="781"/>
      <point x="582" y="777"/>
      <point x="590" y="768" type="curve" smooth="yes"/>
      <point x="601" y="756"/>
      <point x="612" y="719"/>
      <point x="612" y="663" type="curve" smooth="yes"/>
      <point x="612" y="587"/>
      <point x="561" y="475"/>
      <point x="342" y="423" type="curve"/>
      <point x="301" y="488"/>
      <point x="267" y="514"/>
      <point x="234" y="514" type="curve" smooth="yes"/>
      <point x="151" y="514"/>
      <point x="46" y="387"/>
      <point x="46" y="303" type="curve" smooth="yes"/>
      <point x="46" y="223"/>
      <point x="232" y="174"/>
      <point x="339" y="174" type="curve" smooth="yes"/>
      <point x="348" y="174" type="line"/>
      <point x="478" y="37"/>
      <point x="633" y="-63"/>
      <point x="787" y="-134" type="curve"/>
      <point x="905" y="104" type="line"/>
      <point x="727" y="124"/>
      <point x="614" y="151"/>
      <point x="521" y="200" type="curve"/>
      <point x="695" y="252"/>
      <point x="843" y="376"/>
      <point x="848" y="563" type="curve" smooth="yes"/>
    </contour>
  </outline>
</glyph>
<glyph name="tadeva_viramadeva_radeva.alt" format="1">
  <advance width="1286"/>
  <outline>
    <contour>
      <point x="1338" y="997.999" type="line"/>
      <point x="1292" y="1187" type="line"/>
      <point x="-52" y="1187" type="line"/>
      <point x="-0.999999" y="997.999" type="line"/>
      <point x="837" y="997.999" type="line"/>
      <point x="837" y="823" type="line"/>
      <point x="435" y="823" type="line" smooth="yes"/>
      <point x="164" y="823"/>
      <point x="71" y="681"/>
      <point x="71" y="513" type="curve" smooth="yes"/>
      <point x="71" y="339"/>
      <point x="228" y="119"/>
      <point x="446" y="-101" type="curve"/>
      <point x="576" y="-35" type="line"/>
      <point x="463" y="137"/>
      <point x="397" y="303"/>
      <point x="397" y="422" type="curve" smooth="yes"/>
      <point x="397" y="532"/>
      <point x="456" y="603"/>
      <point x="590" y="603" type="curve" smooth="yes"/>
      <point x="837" y="603" type="line"/>
      <point x="837" y="602" type="line"/>
      <point x="488" y="285" type="line"/>
      <point x="722" y="123" type="line"/>
      <point x="837" y="308" type="line"/>
      <point x="837" y="-42" type="line"/>
      <point x="1134" y="-92" type="line"/>
      <point x="1134" y="997.999" type="line"/>
    </contour>
  </outline>
</glyph>
<glyph name="ttadeva_viramadeva" format="1">
  <advance width="1216"/>
  <outline>
    <contour>
      <point x="404" y="222"/>
      <point x="384" y="282"/>
      <point x="384" y="396" type="curve" smooth="yes"/>
      <point x="384" y="516"/>
      <point x="455" y="603"/>
      <point x="640" y="603" type="curve" smooth="yes"/>
      <point x="971.999" y="603" type="line"/>
      <point x="981.999" y="664"/>
      <point x="984.999" y="717"/>
      <point x="984.999" y="768" type="curve" smooth="yes"/>
      <point x="984.999" y="840"/>
      <point x="974.999" y="910"/>
      <point x="959" y="997.999" type="curve"/>
      <point x="1265" y="997.999" type="line"/>
      <point x="1220" y="1187" type="line"/>
      <point x="-52" y="1187" type="line"/>
      <point x="0" y="997.999" type="line"/>
      <point x="678" y="997.999" type="line"/>
      <point x="679" y="979.999"/>
      <point x="680" y="957"/>
      <point x="680" y="931" type="curve" smooth="yes"/>
      <point x="680" y="880"/>
      <point x="676" y="831"/>
      <point x="665" y="793" type="curve"/>
      <point x="505" y="793" type="line" smooth="yes"/>
      <point x="147" y="793"/>
      <point x="94.9999" y="622"/>
      <point x="94.9999" y="473" type="curve" smooth="yes"/>
      <point x="94.9999" y="201"/>
      <point x="363" y="-15"/>
      <point x="690" y="-15" type="curve" smooth="yes"/>
      <point x="886" y="-15"/>
      <point x="1036" y="40"/>
      <point x="1166" y="175" type="curve"/>
      <point x="977.999" y="402" type="line"/>
      <point x="820" y="227"/>
      <point x="678" y="167"/>
      <point x="557" y="167" type="curve" smooth="yes"/>
      <point x="493" y="167"/>
      <point x="432" y="182"/>
      <point x="424" y="193" type="curve" smooth="yes"/>
    </contour>
    <contour>
      <point x="387" y="-305" type="line"/>
      <point x="620" y="-351"/>
      <point x="749" y="-387"/>
      <point x="983.999" y="-585" type="curve"/>
      <point x="1104" y="-519" type="line"/>
      <point x="909" y="-248"/>
      <point x="647" y="-107"/>
      <point x="551" y="-89" type="curve"/>
    </contour>
  </outline>
</glyph>
<glyph name="uni0917094D0928094D" format="1">
  <advance width="717"/>
  <outline>
    <contour>
      <point x="-53" y="1187" type="line"/>
      <point x="-2" y="997.999" type="line"/>
      <point x="346" y="997.999" type="line"/>
      <point x="356" y="946"/>
      <point x="360" y="892"/>
      <point x="360" y="833" type="curve" smooth="yes"/>
      <point x="360" y="782"/>
      <point x="358" y="732"/>
      <point x="351" y="691" type="curve"/>
      <point x="337" y="692"/>
      <point x="323" y="692"/>
      <point x="309" y="692" type="curve" smooth="yes"/>
      <point x="243" y="691"/>
      <point x="174" y="683"/>
      <point x="131" y="666" type="curve"/>
      <point x="115" y="659"/>
      <point x="107" y="646"/>
      <point x="107" y="631" type="curve" smooth="yes"/>
      <point x="107" y="540"/>
      <point x="384" y="258"/>
      <point x="514" y="258" type="curve" smooth="yes"/>
      <point x="529" y="258"/>
      <point x="542" y="261"/>
      <point x="555" y="273" type="curve" smooth="yes"/>
      <point x="638" y="355"/>
      <point x="650" y="559"/>
      <point x="650" y="658" type="curve" smooth="yes"/>
      <point x="650" y="744"/>
      <point x="644" y="862"/>
      <point x="619" y="997.999" type="curve"/>
      <point x="769" y="997.999" type="line"/>
      <point x="723" y="1187" type="line"/>
    </contour>
    <contour>
      <point x="1049" y="358" type="line"/>
      <point x="1001" y="506" type="line"/>
      <point x="930" y="450"/>
      <point x="667" y="246"/>
      <point x="595" y="189" type="curve" smooth="yes"/>
      <point x="449" y="73"/>
      <point x="390" y="8"/>
      <point x="390" y="-45" type="curve" smooth="yes"/>
      <point x="390" y="-60"/>
      <point x="393" y="-70"/>
      <point x="406" y="-83" type="curve" smooth="yes"/>
      <point x="451" y="-131"/>
      <point x="615" y="-154"/>
      <point x="712" y="-136" type="curve" smooth="yes"/>
      <point x="745" y="-131"/>
      <point x="771" y="-109"/>
      <point x="771" y="-82" type="curve" smooth="yes"/>
      <point x="771" y="-40"/>
      <point x="741" y="20"/>
      <point x="705" y="64" type="curve"/>
    </contour>
  </outline>
</glyph>
<glyph name="uni0917094D0928094D092F" format="1">
  <advance width="2003"/>
  <outline>
    <contour>
      <point x="2055" y="997.999" type="line"/>
      <point x="2010" y="1187" type="line"/>
      <point x="-53" y="1187" type="line"/>
      <point x="-2" y="997.999" type="line"/>
      <point x="346" y="997.999" type="line"/>
      <point x="356" y="946"/>
      <point x="360" y="892"/>
      <point x="360" y="833" type="curve" smooth="yes"/>
      <point x="360" y="782"/>
      <point x="358" y="732"/>
      <point x="351" y="691" type="curve"/>
      <point x="337" y="692"/>
      <point x="323" y="692"/>
      <point x="309" y="692" type="curve" smooth="yes"/>
      <point x="243" y="691"/>
      <point x="174" y="683"/>
      <point x="131" y="666" type="curve"/>
      <point x="115" y="659"/>
      <point x="107" y="646"/>
      <point x="107" y="631" type="curve" smooth="yes"/>
      <point x="107" y="540"/>
      <point x="384" y="258"/>
      <point x="514" y="258" type="curve" smooth="yes"/>
      <point x="529" y="258"/>
      <point x="542" y="261"/>
      <point x="555" y="273" type="curve" smooth="yes"/>
      <point x="638" y="355"/>
      <point x="650" y="559"/>
      <point x="650" y="658" type="curve" smooth="yes"/>
      <point x="650" y="744"/>
      <point x="644" y="862"/>
      <point x="619" y="997.999" type="curve"/>
      <point x="962" y="997.999" type="line"/>
      <point x="1041" y="945"/>
      <point x="1067" y="888"/>
      <point x="1067" y="838" type="curve" smooth="yes"/>
      <point x="1067" y="764"/>
      <point x="984.999" y="708"/>
      <point x="766" y="652" type="curve"/>
      <point x="788" y="553"/>
      <point x="820" y="467"/>
      <point x="860" y="396" type="curve"/>
      <point x="759" y="317"/>
      <point x="640" y="225"/>
      <point x="595" y="189" type="curve" smooth="yes"/>
      <point x="449" y="73"/>
      <point x="390" y="8"/>
      <point x="390" y="-45" type="curve" smooth="yes"/>
      <point x="390" y="-60"/>
      <point x="393" y="-70"/>
      <point x="406" y="-83" type="curve" smooth="yes"/>
      <point x="451" y="-131"/>
      <point x="615" y="-154"/>
      <point x="712" y="-136" type="curve" smooth="yes"/>
      <point x="745" y="-131"/>
      <point x="771" y="-109"/>
      <point x="771" y="-82" type="curve" smooth="yes"/>
      <point x="771" y="-40"/>
      <point x="741" y="20"/>
      <point x="705" y="64" type="curve"/>
      <point x="948" y="272" type="line"/>
      <point x="1048" y="163"/>
      <point x="1174" y="110"/>
      <point x="1307" y="110" type="curve" smooth="yes"/>
      <point x="1394" y="110"/>
      <point x="1488" y="128"/>
      <point x="1583" y="180" type="curve"/>
      <point x="1583" y="-41" type="line"/>
      <point x="1880" y="-99.9999" type="line"/>
      <point x="1880" y="997.999" type="line"/>
    </contour>
    <contour>
      <point x="1153" y="358"/>
      <point x="1073" y="377"/>
      <point x="1023" y="440" type="curve"/>
      <point x="1245" y="508"/>
      <point x="1360" y="625"/>
      <point x="1360" y="741" type="curve" smooth="yes"/>
      <point x="1360" y="824"/>
      <point x="1319" y="909"/>
      <point x="1208" y="997.999" type="curve"/>
      <point x="1583" y="997.999" type="line"/>
      <point x="1583" y="587" type="line"/>
      <point x="1523" y="453"/>
      <point x="1384" y="358"/>
      <point x="1241" y="358" type="curve" smooth="yes"/>
    </contour>
  </outline>
</glyph>
<glyph name="uni091A094D091B094D0935" format="1">
  <advance width="2278"/>
  <outline>
    <contour>
      <point x="2034" y="869"/>
      <point x="2036" y="887"/>
      <point x="2036" y="907" type="curve" smooth="yes"/>
      <point x="2036" y="937"/>
      <point x="2026" y="967.999"/>
      <point x="2012" y="997.999" type="curve"/>
      <point x="2330" y="997.999" type="line"/>
      <point x="2289" y="1187" type="line"/>
      <point x="-50" y="1187" type="line"/>
      <point x="-0.999999" y="997.999" type="line"/>
      <point x="975.999" y="997.999" type="line"/>
      <point x="973.999" y="986.999"/>
      <point x="972.999" y="975.999"/>
      <point x="972.999" y="965" type="curve" smooth="yes"/>
      <point x="972.999" y="893"/>
      <point x="1015" y="821"/>
      <point x="1105" y="768" type="curve"/>
      <point x="1028" y="724"/>
      <point x="975.999" y="663"/>
      <point x="975.999" y="571" type="curve" smooth="yes"/>
      <point x="975.999" y="531"/>
      <point x="985.999" y="492"/>
      <point x="1005" y="455" type="curve"/>
      <point x="888" y="306"/>
      <point x="785" y="265"/>
      <point x="658" y="265" type="curve" smooth="yes"/>
      <point x="628" y="265"/>
      <point x="595" y="274"/>
      <point x="584" y="285" type="curve" smooth="yes"/>
      <point x="569" y="300"/>
      <point x="560" y="333"/>
      <point x="560" y="375" type="curve" smooth="yes"/>
      <point x="560" y="513"/>
      <point x="648" y="602"/>
      <point x="851" y="602" type="curve" smooth="yes"/>
      <point x="872" y="602" type="line"/>
      <point x="826" y="802" type="line"/>
      <point x="81" y="802" type="line"/>
      <point x="130" y="602" type="line"/>
      <point x="341" y="602" type="line"/>
      <point x="307" y="567"/>
      <point x="285" y="519"/>
      <point x="285" y="456" type="curve" smooth="yes"/>
      <point x="285" y="410"/>
      <point x="300" y="365"/>
      <point x="326" y="324" type="curve" smooth="yes"/>
      <point x="439" y="141"/>
      <point x="694" y="76"/>
      <point x="840" y="76" type="curve" smooth="yes"/>
      <point x="981.999" y="76"/>
      <point x="1106" y="150"/>
      <point x="1193" y="265" type="curve"/>
      <point x="1313" y="191"/>
      <point x="1467" y="144"/>
      <point x="1617" y="144" type="curve" smooth="yes"/>
      <point x="1653" y="144"/>
      <point x="1688" y="146"/>
      <point x="1722" y="149" type="curve"/>
      <point x="1722" y="-15" type="line"/>
      <point x="1559" y="83"/>
      <point x="1500" y="115"/>
      <point x="1372" y="115" type="curve" smooth="yes"/>
      <point x="1235" y="117"/>
      <point x="1076" y="46"/>
      <point x="1076" y="-138" type="curve" smooth="yes"/>
      <point x="1076" y="-355"/>
      <point x="1343" y="-510"/>
      <point x="1545" y="-510" type="curve" smooth="yes"/>
      <point x="1590" y="-510"/>
      <point x="1652" y="-503"/>
      <point x="1722" y="-473" type="curve"/>
      <point x="1722" y="-581" type="line"/>
      <point x="1979" y="-641" type="line"/>
      <point x="1979" y="212" type="line"/>
      <point x="2124" y="277"/>
      <point x="2211" y="386"/>
      <point x="2211" y="522" type="curve" smooth="yes"/>
      <point x="2211" y="663"/>
      <point x="2140" y="783"/>
      <point x="2031" y="850" type="curve"/>
    </contour>
    <contour>
      <point x="1373" y="318"/>
      <point x="1297" y="325"/>
      <point x="1274" y="338" type="curve" smooth="yes"/>
      <point x="1262" y="345"/>
      <point x="1245" y="398"/>
      <point x="1245" y="453" type="curve" smooth="yes"/>
      <point x="1245" y="565"/>
      <point x="1397" y="586"/>
      <point x="1540" y="620" type="curve"/>
      <point x="1438" y="871" type="line"/>
      <point x="1385" y="861"/>
      <point x="1330" y="849"/>
      <point x="1277" y="835" type="curve"/>
      <point x="1269" y="854"/>
      <point x="1266" y="874"/>
      <point x="1266" y="893" type="curve" smooth="yes"/>
      <point x="1266" y="962"/>
      <point x="1317" y="997.999"/>
      <point x="1411" y="997.999" type="curve" smooth="yes"/>
      <point x="1816" y="997.999" type="line"/>
      <point x="1816" y="985.999" type="line" smooth="yes"/>
      <point x="1816" y="960"/>
      <point x="1812" y="935"/>
      <point x="1803" y="907" type="curve"/>
      <point x="1685" y="901"/>
      <point x="1586" y="842"/>
      <point x="1586" y="720" type="curve" smooth="yes"/>
      <point x="1586" y="629"/>
      <point x="1659" y="542"/>
      <point x="1867" y="475" type="curve"/>
      <point x="1769" y="386"/>
      <point x="1604" y="318"/>
      <point x="1416" y="318" type="curve" smooth="yes"/>
    </contour>
    <contour>
      <point x="1833" y="743"/>
      <point x="1871" y="777"/>
      <point x="1919" y="777" type="curve" smooth="yes"/>
      <point x="1926" y="777"/>
      <point x="1938" y="777"/>
      <point x="1941" y="774" type="curve"/>
      <point x="1949" y="763"/>
      <point x="1963" y="716"/>
      <point x="1963" y="654" type="curve" smooth="yes"/>
      <point x="1963" y="620"/>
      <point x="1952" y="585"/>
      <point x="1932" y="551" type="curve"/>
      <point x="1858" y="593"/>
      <point x="1833" y="634"/>
      <point x="1833" y="681" type="curve" smooth="yes"/>
    </contour>
    <contour>
      <point x="1428" y="-331"/>
      <point x="1417" y="-332"/>
      <point x="1412" y="-323" type="curve"/>
      <point x="1390" y="-288"/>
      <point x="1381" y="-236"/>
      <point x="1381" y="-196" type="curve" smooth="yes"/>
      <point x="1381" y="-119"/>
      <point x="1431" y="-80"/>
      <point x="1523" y="-80" type="curve" smooth="yes"/>
      <point x="1587" y="-80"/>
      <point x="1651" y="-92.9999"/>
      <point x="1722" y="-115" type="curve"/>
      <point x="1722" y="-188" type="line"/>
      <point x="1638" y="-306"/>
      <point x="1509" y="-331"/>
      <point x="1440" y="-331" type="curve" smooth="yes"/>
    </contour>
  </outline>
</glyph>
<glyph name="uni091F094D092F" format="1">
  <advance width="2365"/>
  <outline>
    <contour>
      <point x="2417" y="997.999" type="line"/>
      <point x="2371" y="1187" type="line"/>
      <point x="-52" y="1187" type="line"/>
      <point x="0" y="997.999" type="line"/>
      <point x="678" y="997.999" type="line"/>
      <point x="679" y="979.999"/>
      <point x="680" y="957"/>
      <point x="680" y="931" type="curve" smooth="yes"/>
      <point x="680" y="880"/>
      <point x="676" y="831"/>
      <point x="665" y="793" type="curve"/>
      <point x="505" y="793" type="line" smooth="yes"/>
      <point x="147" y="793"/>
      <point x="94.9999" y="622"/>
      <point x="94.9999" y="473" type="curve" smooth="yes"/>
      <point x="94.9999" y="201"/>
      <point x="363" y="-15"/>
      <point x="690" y="-15" type="curve" smooth="yes"/>
      <point x="886" y="-15"/>
      <point x="1036" y="40"/>
      <point x="1166" y="175" type="curve"/>
      <point x="977.999" y="402" type="line"/>
      <point x="820" y="227"/>
      <point x="678" y="167"/>
      <point x="557" y="167" type="curve" smooth="yes"/>
      <point x="493" y="167"/>
      <point x="432" y="182"/>
      <point x="424" y="193" type="curve" smooth="yes"/>
      <point x="404" y="222"/>
      <point x="384" y="282"/>
      <point x="384" y="396" type="curve" smooth="yes"/>
      <point x="384" y="516"/>
      <point x="455" y="603"/>
      <point x="640" y="603" type="curve" smooth="yes"/>
      <point x="971.999" y="603" type="line"/>
      <point x="971.999" y="604" type="line"/>
      <point x="1334" y="604" type="line" smooth="yes"/>
      <point x="1381" y="604"/>
      <point x="1463" y="600"/>
      <point x="1467" y="564" type="curve" smooth="yes"/>
      <point x="1471" y="530"/>
      <point x="1319" y="488"/>
      <point x="1113" y="460" type="curve"/>
      <point x="1233" y="131"/>
      <point x="1419" y="40"/>
      <point x="1666" y="40" type="curve" smooth="yes"/>
      <point x="1753" y="40"/>
      <point x="1847" y="58"/>
      <point x="1942" y="110" type="curve"/>
      <point x="1942" y="-41" type="line"/>
      <point x="2239" y="-102" type="line"/>
      <point x="2239" y="997.999" type="line"/>
    </contour>
    <contour>
      <point x="1482" y="268"/>
      <point x="1442" y="287"/>
      <point x="1372" y="330" type="curve"/>
      <point x="1623" y="356"/>
      <point x="1740" y="468"/>
      <point x="1740" y="590" type="curve" smooth="yes"/>
      <point x="1740" y="714"/>
      <point x="1636" y="788"/>
      <point x="1438" y="788" type="curve" smooth="yes"/>
      <point x="984.999" y="788" type="line"/>
      <point x="982.999" y="853"/>
      <point x="973.999" y="918"/>
      <point x="959" y="997.999" type="curve"/>
      <point x="1942" y="997.999" type="line"/>
      <point x="1942" y="517" type="line"/>
      <point x="1882" y="383"/>
      <point x="1723" y="268"/>
      <point x="1570" y="268" type="curve" smooth="yes"/>
    </contour>
  </outline>
</glyph>
<glyph name="uni0920094D092F" format="1">
  <advance width="2425"/>
  <outline>
    <contour>
      <point x="2477" y="997.999" type="line"/>
      <point x="2431" y="1187" type="line"/>
      <point x="-52" y="1187" type="line"/>
      <point x="-3" y="997.999" type="line"/>
      <point x="679" y="997.999" type="line"/>
      <point x="681" y="970.999"/>
      <point x="682" y="939"/>
      <point x="682" y="902" type="curve" smooth="yes"/>
      <point x="682" y="852"/>
      <point x="675" y="803"/>
      <point x="663" y="777" type="curve"/>
      <point x="512" y="777" type="line" smooth="yes"/>
      <point x="154" y="777"/>
      <point x="83" y="622"/>
      <point x="83" y="473" type="curve" smooth="yes"/>
      <point x="83" y="162"/>
      <point x="393" y="-16"/>
      <point x="729" y="-16" type="curve" smooth="yes"/>
      <point x="851" y="-16"/>
      <point x="963" y="5"/>
      <point x="1052" y="64" type="curve" smooth="yes"/>
      <point x="1139" y="122"/>
      <point x="1188" y="205"/>
      <point x="1188" y="310" type="curve" smooth="yes"/>
      <point x="1188" y="426"/>
      <point x="1093" y="525"/>
      <point x="949" y="603" type="curve"/>
      <point x="965" y="621"/>
      <point x="975.999" y="652"/>
      <point x="981.999" y="690" type="curve"/>
      <point x="1394" y="690" type="line" smooth="yes"/>
      <point x="1441" y="690"/>
      <point x="1533" y="686"/>
      <point x="1537" y="650" type="curve" smooth="yes"/>
      <point x="1541" y="616"/>
      <point x="1385" y="562"/>
      <point x="1169" y="530" type="curve"/>
      <point x="1300" y="206"/>
      <point x="1485" y="40"/>
      <point x="1726" y="40" type="curve" smooth="yes"/>
      <point x="1813" y="40"/>
      <point x="1907" y="58"/>
      <point x="2002" y="110" type="curve"/>
      <point x="2002" y="-41" type="line"/>
      <point x="2299" y="-102" type="line"/>
      <point x="2299" y="997.999" type="line"/>
    </contour>
    <contour>
      <point x="1552" y="288"/>
      <point x="1502" y="294"/>
      <point x="1432" y="330" type="curve"/>
      <point x="1654" y="378"/>
      <point x="1780" y="466"/>
      <point x="1780" y="622" type="curve" smooth="yes"/>
      <point x="1780" y="750"/>
      <point x="1676" y="874"/>
      <point x="1478" y="874" type="curve" smooth="yes"/>
      <point x="975.999" y="874" type="line"/>
      <point x="967" y="919"/>
      <point x="954" y="962"/>
      <point x="940" y="997.999" type="curve"/>
      <point x="2002" y="997.999" type="line"/>
      <point x="2002" y="517" type="line"/>
      <point x="1942" y="383"/>
      <point x="1783" y="288"/>
      <point x="1640" y="288" type="curve" smooth="yes"/>
    </contour>
    <contour>
      <point x="757" y="176"/>
      <point x="643" y="141"/>
      <point x="558" y="141" type="curve" smooth="yes"/>
      <point x="506" y="141"/>
      <point x="450" y="150"/>
      <point x="443" y="161" type="curve" smooth="yes"/>
      <point x="422" y="194"/>
      <point x="393" y="276"/>
      <point x="393" y="376" type="curve" smooth="yes"/>
      <point x="393" y="534"/>
      <point x="483" y="587"/>
      <point x="638" y="587" type="curve" smooth="yes"/>
      <point x="839" y="587" type="line"/>
      <point x="880" y="521"/>
      <point x="898" y="454"/>
      <point x="898" y="382" type="curve" smooth="yes"/>
      <point x="898" y="310"/>
      <point x="871" y="253"/>
      <point x="808" y="210" type="curve" smooth="yes"/>
    </contour>
  </outline>
</glyph>
<glyph name="uni0922094D092F" format="1">
  <advance width="2464"/>
  <outline>
    <contour>
      <point x="2516" y="997.999" type="line"/>
      <point x="2470" y="1187" type="line"/>
      <point x="-52" y="1187" type="line"/>
      <point x="-3" y="997.999" type="line"/>
      <point x="752" y="997.999" type="line"/>
      <point x="754" y="980.999"/>
      <point x="753" y="963"/>
      <point x="753" y="942" type="curve" smooth="yes"/>
      <point x="753" y="925"/>
      <point x="749" y="900"/>
      <point x="746" y="880" type="curve"/>
      <point x="558" y="880" type="line" smooth="yes"/>
      <point x="317" y="880"/>
      <point x="79" y="802"/>
      <point x="79" y="524" type="curve" smooth="yes"/>
      <point x="79" y="355"/>
      <point x="177" y="225"/>
      <point x="309" y="129" type="curve" smooth="yes"/>
      <point x="422" y="47"/>
      <point x="572" y="0.999999"/>
      <point x="750" y="0.999999" type="curve" smooth="yes"/>
      <point x="1040" y="0.999999"/>
      <point x="1203" y="142"/>
      <point x="1203" y="313" type="curve" smooth="yes"/>
      <point x="1203" y="449"/>
      <point x="965" y="611"/>
      <point x="792" y="611" type="curve" smooth="yes"/>
      <point x="624" y="611"/>
      <point x="515" y="523"/>
      <point x="515" y="403" type="curve" smooth="yes"/>
      <point x="515" y="319"/>
      <point x="564" y="252"/>
      <point x="632" y="181" type="curve"/>
      <point x="555" y="167"/>
      <point x="453" y="175"/>
      <point x="441" y="188" type="curve"/>
      <point x="416" y="212"/>
      <point x="375" y="316"/>
      <point x="375" y="442" type="curve" smooth="yes"/>
      <point x="375" y="679"/>
      <point x="539" y="696"/>
      <point x="736" y="696" type="curve" smooth="yes"/>
      <point x="1433" y="696" type="line" smooth="yes"/>
      <point x="1480" y="696"/>
      <point x="1572" y="692"/>
      <point x="1576" y="656" type="curve" smooth="yes"/>
      <point x="1580" y="622"/>
      <point x="1418" y="561"/>
      <point x="1238" y="534" type="curve" smooth="yes"/>
      <point x="1220" y="531"/>
      <point x="1216" y="515"/>
      <point x="1220" y="504" type="curve" smooth="yes"/>
      <point x="1339" y="206"/>
      <point x="1524" y="40"/>
      <point x="1765" y="40" type="curve" smooth="yes"/>
      <point x="1852" y="40"/>
      <point x="1946" y="58"/>
      <point x="2041" y="110" type="curve"/>
      <point x="2041" y="-41" type="line"/>
      <point x="2338" y="-102" type="line"/>
      <point x="2338" y="997.999" type="line"/>
    </contour>
    <contour>
      <point x="1591" y="288"/>
      <point x="1541" y="294"/>
      <point x="1471" y="330" type="curve"/>
      <point x="1693" y="378"/>
      <point x="1819" y="465"/>
      <point x="1819" y="628" type="curve" smooth="yes"/>
      <point x="1819" y="756"/>
      <point x="1715" y="880"/>
      <point x="1517" y="880" type="curve" smooth="yes"/>
      <point x="1040" y="880" type="line"/>
      <point x="1035" y="927"/>
      <point x="1027" y="963"/>
      <point x="1017" y="997.999" type="curve"/>
      <point x="2041" y="997.999" type="line"/>
      <point x="2041" y="517" type="line"/>
      <point x="1981" y="383"/>
      <point x="1822" y="288"/>
      <point x="1679" y="288" type="curve" smooth="yes"/>
    </contour>
    <contour>
      <point x="945" y="458"/>
      <point x="968.999" y="454"/>
      <point x="974.999" y="449" type="curve"/>
      <point x="978.999" y="446"/>
      <point x="988.999" y="417"/>
      <point x="988.999" y="392" type="curve" smooth="yes"/>
      <point x="988.999" y="263"/>
      <point x="850" y="216"/>
      <point x="749" y="203" type="curve"/>
      <point x="728" y="387"/>
      <point x="820" y="453"/>
      <point x="931" y="457" type="curve"/>
    </contour>
  </outline>
</glyph>
<glyph name="uni0924094D0930094D092F.alt" format="1">
  <advance width="1865"/>
  <outline>
    <contour>
      <point x="1917" y="997.999" type="line"/>
      <point x="1872" y="1187" type="line"/>
      <point x="-50" y="1187" type="line"/>
      <point x="-0.999999" y="997.999" type="line"/>
      <point x="824" y="997.999" type="line"/>
      <point x="903" y="945"/>
      <point x="929" y="888"/>
      <point x="929" y="838" type="curve" smooth="yes"/>
      <point x="929" y="767"/>
      <point x="854" y="713"/>
      <point x="657" y="660" type="curve"/>
      <point x="644" y="675" type="line" smooth="yes"/>
      <point x="493" y="850"/>
      <point x="391" y="872"/>
      <point x="307" y="871" type="curve" smooth="yes"/>
      <point x="220" y="870"/>
      <point x="128" y="851"/>
      <point x="-5" y="744" type="curve"/>
      <point x="170" y="502" type="line"/>
      <point x="300" y="607"/>
      <point x="359" y="614"/>
      <point x="414" y="614" type="curve" smooth="yes"/>
      <point x="476" y="614"/>
      <point x="534" y="589"/>
      <point x="627" y="508" type="curve"/>
      <point x="75" y="211" type="line"/>
      <point x="264" y="-61" type="line"/>
      <point x="747" y="354" type="line"/>
      <point x="854" y="190"/>
      <point x="1006" y="110"/>
      <point x="1169" y="110" type="curve" smooth="yes"/>
      <point x="1256" y="110"/>
      <point x="1350" y="128"/>
      <point x="1445" y="180" type="curve"/>
      <point x="1445" y="-41" type="line"/>
      <point x="1742" y="-99.9999" type="line"/>
      <point x="1742" y="997.999" type="line"/>
    </contour>
    <contour>
      <point x="1015" y="358"/>
      <point x="935" y="377"/>
      <point x="885" y="440" type="curve"/>
      <point x="1107" y="508"/>
      <point x="1222" y="625"/>
      <point x="1222" y="741" type="curve" smooth="yes"/>
      <point x="1222" y="824"/>
      <point x="1181" y="909"/>
      <point x="1070" y="997.999" type="curve"/>
      <point x="1445" y="997.999" type="line"/>
      <point x="1445" y="587" type="line"/>
      <point x="1385" y="453"/>
      <point x="1246" y="358"/>
      <point x="1103" y="358" type="curve" smooth="yes"/>
    </contour>
  </outline>
</glyph>
<glyph name="uni0924094D0930094D092F" format="1">
  <advance width="1920"/>
  <outline>
    <contour>
      <point x="1972" y="997.999" type="line"/>
      <point x="1927" y="1187" type="line"/>
      <point x="-50" y="1187" type="line"/>
      <point x="-0.999999" y="997.999" type="line"/>
      <point x="879" y="997.999" type="line"/>
      <point x="958" y="945"/>
      <point x="983.999" y="888"/>
      <point x="983.999" y="838" type="curve" smooth="yes"/>
      <point x="983.999" y="764"/>
      <point x="902" y="708"/>
      <point x="683" y="652" type="curve"/>
      <point x="690" y="622" type="line"/>
      <point x="644" y="675" type="line" smooth="yes"/>
      <point x="493" y="850"/>
      <point x="391" y="872"/>
      <point x="307" y="871" type="curve" smooth="yes"/>
      <point x="220" y="870"/>
      <point x="128" y="851"/>
      <point x="-5" y="744" type="curve"/>
      <point x="170" y="502" type="line"/>
      <point x="300" y="607"/>
      <point x="359" y="614"/>
      <point x="414" y="614" type="curve" smooth="yes"/>
      <point x="476" y="614"/>
      <point x="534" y="589"/>
      <point x="627" y="508" type="curve"/>
      <point x="75" y="211" type="line"/>
      <point x="264" y="-61" type="line"/>
      <point x="783" y="385" type="line"/>
      <point x="890" y="200"/>
      <point x="1051" y="110"/>
      <point x="1224" y="110" type="curve" smooth="yes"/>
      <point x="1311" y="110"/>
      <point x="1405" y="128"/>
      <point x="1500" y="180" type="curve"/>
      <point x="1500" y="-41" type="line"/>
      <point x="1797" y="-99.9999" type="line"/>
      <point x="1797" y="997.999" type="line"/>
    </contour>
    <contour>
      <point x="1070" y="358"/>
      <point x="989.999" y="377"/>
      <point x="940" y="440" type="curve"/>
      <point x="1162" y="508"/>
      <point x="1277" y="625"/>
      <point x="1277" y="741" type="curve" smooth="yes"/>
      <point x="1277" y="824"/>
      <point x="1236" y="909"/>
      <point x="1125" y="997.999" type="curve"/>
      <point x="1500" y="997.999" type="line"/>
      <point x="1500" y="587" type="line"/>
      <point x="1440" y="453"/>
      <point x="1301" y="358"/>
      <point x="1158" y="358" type="curve" smooth="yes"/>
    </contour>
  </outline>
</glyph>
<glyph name="uni0926094D0927094D0930094D092F" format="1">
  <advance width="2594"/>
  <outline>
    <contour>
      <point x="2646" y="997.999" type="line"/>
      <point x="2600" y="1187" type="line"/>
      <point x="-54" y="1187" type="line"/>
      <point x="-4" y="997.999" type="line"/>
      <point x="913" y="997.999" type="line"/>
      <point x="915" y="975.999"/>
      <point x="917" y="950"/>
      <point x="917" y="924" type="curve" smooth="yes"/>
      <point x="917" y="882"/>
      <point x="912" y="869"/>
      <point x="905" y="837" type="curve"/>
      <point x="689" y="837" type="line" smooth="yes"/>
      <point x="331" y="837"/>
      <point x="272" y="668"/>
      <point x="272" y="523" type="curve" smooth="yes"/>
      <point x="272" y="253"/>
      <point x="610" y="87"/>
      <point x="836" y="87" type="curve" smooth="yes"/>
      <point x="882" y="87"/>
      <point x="931" y="92"/>
      <point x="979.999" y="102" type="curve"/>
      <point x="894" y="-87"/>
      <point x="764" y="-261"/>
      <point x="617" y="-302" type="curve" smooth="yes"/>
      <point x="595" y="-308"/>
      <point x="561" y="-311"/>
      <point x="552" y="-305" type="curve" smooth="yes"/>
      <point x="533" y="-292"/>
      <point x="519" y="-272"/>
      <point x="519" y="-244" type="curve" smooth="yes"/>
      <point x="519" y="-187"/>
      <point x="563" y="-153"/>
      <point x="689" y="-111" type="curve"/>
      <point x="554" y="83" type="line"/>
      <point x="472" y="63"/>
      <point x="411" y="36"/>
      <point x="352" y="-13" type="curve" smooth="yes"/>
      <point x="345" y="-19"/>
      <point x="338" y="-25"/>
      <point x="332" y="-32" type="curve"/>
      <point x="282" y="-2"/>
      <point x="266" y="37"/>
      <point x="266" y="78" type="curve" smooth="yes"/>
      <point x="266" y="108"/>
      <point x="278" y="142"/>
      <point x="318" y="159" type="curve" smooth="yes"/>
      <point x="349" y="171"/>
      <point x="381" y="175"/>
      <point x="432" y="174" type="curve"/>
      <point x="306" y="297" type="line"/>
      <point x="272" y="311"/>
      <point x="245" y="316"/>
      <point x="200" y="316" type="curve" smooth="yes"/>
      <point x="139" y="316"/>
      <point x="16" y="285"/>
      <point x="16" y="146" type="curve" smooth="yes"/>
      <point x="16" y="42"/>
      <point x="114" y="-47"/>
      <point x="296" y="-80" type="curve"/>
      <point x="282" y="-106"/>
      <point x="275" y="-136"/>
      <point x="275" y="-172" type="curve" smooth="yes"/>
      <point x="275" y="-345"/>
      <point x="525" y="-464"/>
      <point x="763" y="-417" type="curve" smooth="yes"/>
      <point x="817" y="-407"/>
      <point x="969.999" y="-357"/>
      <point x="1092" y="-153" type="curve"/>
      <point x="1099" y="-165" type="line"/>
      <point x="984.999" y="-536" type="line"/>
      <point x="1207" y="-558" type="line"/>
      <point x="1216" y="-307" type="line"/>
      <point x="1228" y="-319"/>
      <point x="1240" y="-330"/>
      <point x="1253" y="-341" type="curve"/>
      <point x="1428" y="-115" type="line"/>
      <point x="1289" y="-58"/>
      <point x="1174" y="0"/>
      <point x="1095" y="135" type="curve"/>
      <point x="1101" y="137" type="line"/>
      <point x="1202" y="177"/>
      <point x="1295" y="257"/>
      <point x="1338" y="314" type="curve" smooth="yes"/>
      <point x="1352" y="333"/>
      <point x="1354" y="369"/>
      <point x="1339" y="387" type="curve" smooth="yes"/>
      <point x="1254" y="484"/>
      <point x="1113" y="529"/>
      <point x="1005" y="529" type="curve" smooth="yes"/>
      <point x="921" y="529"/>
      <point x="886" y="499"/>
      <point x="886" y="418" type="curve" smooth="yes"/>
      <point x="886" y="383"/>
      <point x="898" y="342"/>
      <point x="913" y="304" type="curve"/>
      <point x="846" y="262"/>
      <point x="753" y="247"/>
      <point x="703" y="247" type="curve" smooth="yes"/>
      <point x="670" y="247"/>
      <point x="637" y="250"/>
      <point x="629" y="259" type="curve"/>
      <point x="605" y="283"/>
      <point x="581" y="364"/>
      <point x="581" y="468" type="curve" smooth="yes"/>
      <point x="581" y="567"/>
      <point x="603" y="647"/>
      <point x="807" y="647" type="curve" smooth="yes"/>
      <point x="1206" y="647" type="line"/>
      <point x="1206" y="648" type="line"/>
      <point x="1563" y="648" type="line" smooth="yes"/>
      <point x="1610" y="648"/>
      <point x="1702" y="644"/>
      <point x="1706" y="608" type="curve" smooth="yes"/>
      <point x="1710" y="574"/>
      <point x="1548" y="509"/>
      <point x="1340" y="482" type="curve"/>
      <point x="1471" y="152"/>
      <point x="1648" y="40"/>
      <point x="1895" y="40" type="curve" smooth="yes"/>
      <point x="1982" y="40"/>
      <point x="2076" y="58"/>
      <point x="2171" y="110" type="curve"/>
      <point x="2171" y="-41" type="line"/>
      <point x="2468" y="-102" type="line"/>
      <point x="2468" y="997.999" type="line"/>
    </contour>
    <contour>
      <point x="1735" y="284"/>
      <point x="1675" y="293"/>
      <point x="1619" y="313" type="curve"/>
      <point x="1823" y="350"/>
      <point x="1949" y="417"/>
      <point x="1949" y="580" type="curve" smooth="yes"/>
      <point x="1949" y="708"/>
      <point x="1845" y="832"/>
      <point x="1647" y="832" type="curve" smooth="yes"/>
      <point x="1214" y="832" type="line"/>
      <point x="1211" y="880"/>
      <point x="1203" y="933"/>
      <point x="1190" y="997.999" type="curve"/>
      <point x="2171" y="997.999" type="line"/>
      <point x="2171" y="517" type="line"/>
      <point x="2112" y="364"/>
      <point x="1956" y="286"/>
      <point x="1794" y="284" type="curve" smooth="yes"/>
    </contour>
  </outline>
</glyph>
<glyph name="uni0926094D0935094D092F" format="1">
  <advance width="2442"/>
  <outline>
    <contour>
      <point x="2494" y="997.999" type="line"/>
      <point x="2449" y="1187" type="line"/>
      <point x="-51" y="1187" type="line"/>
      <point x="-0.999999" y="997.999" type="line"/>
      <point x="713" y="997.999" type="line"/>
      <point x="715" y="975.999"/>
      <point x="717" y="950"/>
      <point x="717" y="924" type="curve" smooth="yes"/>
      <point x="717" y="882"/>
      <point x="712" y="869"/>
      <point x="705" y="837" type="curve"/>
      <point x="489" y="837" type="line" smooth="yes"/>
      <point x="131" y="837"/>
      <point x="72" y="668"/>
      <point x="72" y="523" type="curve" smooth="yes"/>
      <point x="72" y="360"/>
      <point x="195" y="235"/>
      <point x="342" y="161" type="curve"/>
      <point x="252" y="137"/>
      <point x="178" y="83"/>
      <point x="178" y="-18" type="curve" smooth="yes"/>
      <point x="178" y="-191"/>
      <point x="368" y="-321"/>
      <point x="546" y="-321" type="curve" smooth="yes"/>
      <point x="654" y="-321"/>
      <point x="787" y="-284"/>
      <point x="884" y="-139" type="curve"/>
      <point x="924" y="-211"/>
      <point x="978.999" y="-280"/>
      <point x="1056" y="-339" type="curve"/>
      <point x="1232" y="-113" type="line"/>
      <point x="1089" y="-59"/>
      <point x="974.999" y="-4"/>
      <point x="895" y="135" type="curve"/>
      <point x="901" y="137" type="line"/>
      <point x="1002" y="177"/>
      <point x="1095" y="257"/>
      <point x="1138" y="314" type="curve" smooth="yes"/>
      <point x="1152" y="333"/>
      <point x="1154" y="369"/>
      <point x="1139" y="387" type="curve" smooth="yes"/>
      <point x="1054" y="484"/>
      <point x="913" y="529"/>
      <point x="805" y="529" type="curve" smooth="yes"/>
      <point x="721" y="529"/>
      <point x="686" y="499"/>
      <point x="686" y="418" type="curve" smooth="yes"/>
      <point x="686" y="383"/>
      <point x="698" y="342"/>
      <point x="713" y="304" type="curve"/>
      <point x="646" y="262"/>
      <point x="553" y="247"/>
      <point x="503" y="247" type="curve" smooth="yes"/>
      <point x="470" y="247"/>
      <point x="437" y="250"/>
      <point x="429" y="259" type="curve"/>
      <point x="405" y="283"/>
      <point x="381" y="364"/>
      <point x="381" y="468" type="curve" smooth="yes"/>
      <point x="381" y="567"/>
      <point x="403" y="647"/>
      <point x="607" y="647" type="curve" smooth="yes"/>
      <point x="1413" y="647" type="line" smooth="yes"/>
      <point x="1460" y="647"/>
      <point x="1552" y="646"/>
      <point x="1556" y="610" type="curve" smooth="yes"/>
      <point x="1560" y="576"/>
      <point x="1398" y="538"/>
      <point x="1190" y="511" type="curve"/>
      <point x="1321" y="180"/>
      <point x="1498" y="40"/>
      <point x="1745" y="40" type="curve" smooth="yes"/>
      <point x="1832" y="40"/>
      <point x="1926" y="58"/>
      <point x="2021" y="110" type="curve"/>
      <point x="2021" y="-41" type="line"/>
      <point x="2318" y="-102" type="line"/>
      <point x="2318" y="997.999" type="line"/>
    </contour>
    <contour>
      <point x="1571" y="288"/>
      <point x="1521" y="294"/>
      <point x="1451" y="330" type="curve"/>
      <point x="1673" y="378"/>
      <point x="1799" y="426"/>
      <point x="1799" y="582" type="curve" smooth="yes"/>
      <point x="1799" y="710"/>
      <point x="1695" y="831"/>
      <point x="1497" y="831" type="curve" smooth="yes"/>
      <point x="1014" y="831" type="line"/>
      <point x="1011" y="879"/>
      <point x="1004" y="933"/>
      <point x="989.999" y="997.999" type="curve"/>
      <point x="2021" y="997.999" type="line"/>
      <point x="2021" y="517" type="line"/>
      <point x="1961" y="383"/>
      <point x="1802" y="288"/>
      <point x="1659" y="288" type="curve" smooth="yes"/>
    </contour>
    <contour>
      <point x="800" y="98.9999" type="line"/>
      <point x="747" y="-73"/>
      <point x="606" y="-183"/>
      <point x="517" y="-213" type="curve" smooth="yes"/>
      <point x="505" y="-217"/>
      <point x="493" y="-218"/>
      <point x="488" y="-213" type="curve" smooth="yes"/>
      <point x="441" y="-166"/>
      <point x="412" y="-87"/>
      <point x="415" y="-36" type="curve" smooth="yes"/>
      <point x="419" y="36"/>
      <point x="479" y="84"/>
      <point x="554" y="92.9999" type="curve"/>
      <point x="583" y="89"/>
      <point x="610" y="87"/>
      <point x="636" y="87" type="curve" smooth="yes"/>
      <point x="688" y="87"/>
      <point x="744" y="92.9999"/>
      <point x="799" y="106" type="curve"/>
    </contour>
  </outline>
</glyph>
<glyph name="uni0926094D0943" format="1">
  <advance width="1269"/>
  <outline>
    <contour>
      <point x="1328" y="-418" type="line"/>
      <point x="1186" y="-540"/>
      <point x="1117" y="-576"/>
      <point x="1025" y="-576" type="curve" smooth="yes"/>
      <point x="992.999" y="-576"/>
      <point x="958" y="-565"/>
      <point x="948" y="-553" type="curve" smooth="yes"/>
      <point x="938" y="-541"/>
      <point x="930" y="-512"/>
      <point x="930" y="-475" type="curve" smooth="yes"/>
      <point x="930" y="-380"/>
      <point x="1068" y="-316"/>
      <point x="1276" y="-314" type="curve"/>
      <point x="1207" y="-106" type="line"/>
      <point x="1094" y="-30"/>
      <point x="1031" y="11"/>
      <point x="967" y="95.9999" type="curve"/>
      <point x="1049" y="140"/>
      <point x="1136" y="216"/>
      <point x="1182" y="300" type="curve" smooth="yes"/>
      <point x="1194" y="322"/>
      <point x="1192" y="349"/>
      <point x="1177" y="367" type="curve" smooth="yes"/>
      <point x="1092" y="464"/>
      <point x="951" y="519"/>
      <point x="843" y="519" type="curve" smooth="yes"/>
      <point x="759" y="519"/>
      <point x="724" y="487"/>
      <point x="724" y="406" type="curve" smooth="yes"/>
      <point x="724" y="371"/>
      <point x="736" y="312"/>
      <point x="748" y="272" type="curve"/>
      <point x="690" y="234"/>
      <point x="609" y="207"/>
      <point x="541" y="207" type="curve" smooth="yes"/>
      <point x="508" y="207"/>
      <point x="475" y="210"/>
      <point x="467" y="219" type="curve"/>
      <point x="443" y="243"/>
      <point x="419" y="352"/>
      <point x="419" y="438" type="curve" smooth="yes"/>
      <point x="419" y="537"/>
      <point x="441" y="627"/>
      <point x="645" y="627" type="curve" smooth="yes"/>
      <point x="1031" y="627" type="line"/>
      <point x="1046" y="678"/>
      <point x="1054" y="721"/>
      <point x="1054" y="780" type="curve" smooth="yes"/>
      <point x="1054" y="845"/>
      <point x="1041" y="937"/>
      <point x="1028" y="997.999" type="curve"/>
      <point x="1313" y="997.999" type="line"/>
      <point x="1267" y="1187" type="line"/>
      <point x="-52" y="1187" type="line"/>
      <point x="-3" y="997.999" type="line"/>
      <point x="751" y="997.999" type="line"/>
      <point x="753" y="975.999"/>
      <point x="755" y="950"/>
      <point x="755" y="924" type="curve" smooth="yes"/>
      <point x="755" y="882"/>
      <point x="750" y="849"/>
      <point x="743" y="817" type="curve"/>
      <point x="527" y="817" type="line" smooth="yes"/>
      <point x="169" y="817"/>
      <point x="110" y="648"/>
      <point x="110" y="503" type="curve" smooth="yes"/>
      <point x="110" y="183"/>
      <point x="446" y="32"/>
      <point x="672" y="32" type="curve" smooth="yes"/>
      <point x="721" y="32"/>
      <point x="773" y="36"/>
      <point x="824" y="47" type="curve"/>
      <point x="851" y="-23"/>
      <point x="883" y="-92"/>
      <point x="922" y="-156" type="curve"/>
      <point x="822" y="-201"/>
      <point x="768" y="-274"/>
      <point x="768" y="-369" type="curve" smooth="yes"/>
      <point x="768" y="-546"/>
      <point x="930" y="-724"/>
      <point x="1176" y="-728" type="curve" smooth="yes"/>
      <point x="1293" y="-729"/>
      <point x="1358" y="-703"/>
      <point x="1463" y="-613" type="curve"/>
    </contour>
  </outline>
</glyph>
<glyph name="uni0928094D0928094D092F" format="1">
  <advance width="1845"/>
  <outline>
    <contour>
      <point x="1897" y="997.999" type="line"/>
      <point x="1852" y="1187" type="line"/>
      <point x="-50" y="1187" type="line"/>
      <point x="-0.999999" y="997.999" type="line"/>
      <point x="804" y="997.999" type="line"/>
      <point x="883" y="945"/>
      <point x="909" y="888"/>
      <point x="909" y="838" type="curve" smooth="yes"/>
      <point x="909" y="798"/>
      <point x="885" y="763"/>
      <point x="829" y="731" type="curve"/>
      <point x="684" y="783"/>
      <point x="499" y="839"/>
      <point x="348" y="869" type="curve" smooth="yes"/>
      <point x="262" y="886"/>
      <point x="77" y="904"/>
      <point x="53" y="837" type="curve" smooth="yes"/>
      <point x="7" y="710"/>
      <point x="139" y="425"/>
      <point x="243" y="425" type="curve" smooth="yes"/>
      <point x="343" y="425"/>
      <point x="416" y="565"/>
      <point x="431" y="625" type="curve"/>
      <point x="465" y="622"/>
      <point x="520" y="616"/>
      <point x="582" y="604" type="curve" smooth="yes"/>
      <point x="622" y="596" type="line"/>
      <point x="632" y="558"/>
      <point x="644" y="523"/>
      <point x="657" y="490" type="curve"/>
      <point x="273" y="290" type="line" smooth="yes"/>
      <point x="233" y="269"/>
      <point x="191" y="243"/>
      <point x="162" y="215" type="curve" smooth="yes"/>
      <point x="131" y="183"/>
      <point x="117" y="149"/>
      <point x="147" y="103" type="curve" smooth="yes"/>
      <point x="216" y="0"/>
      <point x="385" y="-85"/>
      <point x="524" y="-85" type="curve" smooth="yes"/>
      <point x="544" y="-85"/>
      <point x="567" y="-82"/>
      <point x="579" y="-74" type="curve"/>
      <point x="592" y="-66"/>
      <point x="600" y="-56"/>
      <point x="604" y="-42" type="curve" smooth="yes"/>
      <point x="625" y="25"/>
      <point x="592" y="140"/>
      <point x="554" y="218" type="curve"/>
      <point x="742" y="332" type="line"/>
      <point x="848" y="182"/>
      <point x="993.999" y="110"/>
      <point x="1149" y="110" type="curve" smooth="yes"/>
      <point x="1236" y="110"/>
      <point x="1330" y="128"/>
      <point x="1425" y="180" type="curve"/>
      <point x="1425" y="-41" type="line"/>
      <point x="1722" y="-99.9999" type="line"/>
      <point x="1722" y="997.999" type="line"/>
    </contour>
    <contour>
      <point x="1006" y="358"/>
      <point x="935" y="373"/>
      <point x="885" y="418" type="curve"/>
      <point x="959" y="463" type="line"/>
      <point x="959" y="474" type="line"/>
      <point x="1119" y="544"/>
      <point x="1202" y="643"/>
      <point x="1202" y="741" type="curve" smooth="yes"/>
      <point x="1202" y="824"/>
      <point x="1161" y="909"/>
      <point x="1050" y="997.999" type="curve"/>
      <point x="1425" y="997.999" type="line"/>
      <point x="1425" y="587" type="line"/>
      <point x="1365" y="453"/>
      <point x="1226" y="358"/>
      <point x="1083" y="358" type="curve" smooth="yes"/>
    </contour>
  </outline>
</glyph>
<glyph name="uni092D094D0928094D" format="1">
  <advance width="993"/>
  <outline>
    <contour>
      <point x="1191" y="336" type="line"/>
      <point x="1217" y="336" type="line"/>
      <point x="1214" y="356" type="line"/>
      <point x="1228" y="368" type="line"/>
      <point x="1194" y="473" type="line"/>
      <point x="1177" y="574" type="line"/>
      <point x="778" y="574" type="line"/>
      <point x="783" y="641"/>
      <point x="787" y="706"/>
      <point x="787" y="766" type="curve" smooth="yes"/>
      <point x="787" y="880"/>
      <point x="762" y="984.999"/>
      <point x="680" y="1077" type="curve" smooth="yes"/>
      <point x="611" y="1156"/>
      <point x="525" y="1212"/>
      <point x="367" y="1212" type="curve" smooth="yes"/>
      <point x="234" y="1212"/>
      <point x="63" y="1151"/>
      <point x="63" y="979.999" type="curve" smooth="yes"/>
      <point x="63" y="824"/>
      <point x="208" y="704"/>
      <point x="499" y="698" type="curve"/>
      <point x="493" y="654"/>
      <point x="483" y="610"/>
      <point x="468" y="573" type="curve"/>
      <point x="381" y="573"/>
      <point x="231" y="566"/>
      <point x="231" y="497" type="curve" smooth="yes"/>
      <point x="231" y="407"/>
      <point x="446" y="145"/>
      <point x="574" y="145" type="curve" smooth="yes"/>
      <point x="634" y="145"/>
      <point x="707" y="276"/>
      <point x="732" y="336" type="curve"/>
      <point x="949" y="336" type="line"/>
      <point x="774" y="199" type="line" smooth="yes"/>
      <point x="628" y="83"/>
      <point x="569" y="18"/>
      <point x="569" y="-35" type="curve" smooth="yes"/>
      <point x="569" y="-50"/>
      <point x="572" y="-60"/>
      <point x="585" y="-73" type="curve" smooth="yes"/>
      <point x="630" y="-121"/>
      <point x="794" y="-144"/>
      <point x="891" y="-126" type="curve" smooth="yes"/>
      <point x="924" y="-121"/>
      <point x="950" y="-98.9999"/>
      <point x="950" y="-72" type="curve" smooth="yes"/>
      <point x="950" y="-30"/>
      <point x="920" y="30"/>
      <point x="884" y="74" type="curve"/>
    </contour>
    <contour>
      <point x="870" y="997.999" type="line"/>
      <point x="1048" y="997.999" type="line"/>
      <point x="1002" y="1187" type="line"/>
      <point x="820" y="1187" type="line"/>
    </contour>
    <contour>
      <point x="339" y="1045"/>
      <point x="366" y="1080"/>
      <point x="418" y="1080" type="curve" smooth="yes"/>
      <point x="459" y="1080"/>
      <point x="490" y="1053"/>
      <point x="499" y="983.999" type="curve" smooth="yes"/>
      <point x="505" y="944"/>
      <point x="511" y="899"/>
      <point x="511" y="859" type="curve" smooth="yes"/>
      <point x="511" y="833"/>
      <point x="510" y="804"/>
      <point x="508" y="774" type="curve"/>
      <point x="404" y="812"/>
      <point x="339" y="899"/>
      <point x="339" y="999.999" type="curve" smooth="yes"/>
    </contour>
  </outline>
</glyph>
<glyph name="uni092E094D0928094D" format="1">
  <advance width="818"/>
  <outline>
    <contour>
      <point x="1034" y="366" type="line"/>
      <point x="1042" y="366" type="line"/>
      <point x="1011" y="576" type="line"/>
      <point x="561" y="576" type="line"/>
      <point x="561" y="997.999" type="line"/>
      <point x="864" y="997.999" type="line"/>
      <point x="819" y="1187" type="line"/>
      <point x="-52" y="1187" type="line"/>
      <point x="-0.999999" y="997.999" type="line"/>
      <point x="274" y="997.999" type="line"/>
      <point x="274" y="576" type="line"/>
      <point x="265" y="576" type="line" smooth="yes"/>
      <point x="208" y="576"/>
      <point x="80" y="569"/>
      <point x="80" y="515" type="curve" smooth="yes"/>
      <point x="80" y="384"/>
      <point x="345" y="130"/>
      <point x="476" y="130" type="curve" smooth="yes"/>
      <point x="546" y="130"/>
      <point x="559" y="277"/>
      <point x="559" y="366" type="curve"/>
      <point x="839" y="366" type="line"/>
      <point x="658" y="195" type="line" smooth="yes"/>
      <point x="522" y="67"/>
      <point x="456" y="2"/>
      <point x="466" y="-56" type="curve"/>
      <point x="468" y="-65"/>
      <point x="472" y="-73"/>
      <point x="476" y="-77" type="curve"/>
      <point x="523" y="-133"/>
      <point x="686" y="-137"/>
      <point x="782" y="-114" type="curve" smooth="yes"/>
      <point x="815" y="-107"/>
      <point x="839" y="-83"/>
      <point x="838" y="-56" type="curve" smooth="yes"/>
      <point x="836" y="-14"/>
      <point x="802" y="44"/>
      <point x="764" y="86" type="curve"/>
    </contour>
  </outline>
</glyph>
<glyph name="uni092E094D0930094D" format="1">
  <advance width="818"/>
  <outline>
    <contour>
      <point x="1098" y="312" type="line"/>
      <point x="1041" y="372" type="line"/>
      <point x="1011" y="576" type="line"/>
      <point x="561" y="576" type="line"/>
      <point x="561" y="997.999" type="line"/>
      <point x="864" y="997.999" type="line"/>
      <point x="819" y="1187" type="line"/>
      <point x="-52" y="1187" type="line"/>
      <point x="-0.999999" y="997.999" type="line"/>
      <point x="274" y="997.999" type="line"/>
      <point x="274" y="576" type="line"/>
      <point x="265" y="576" type="line" smooth="yes"/>
      <point x="208" y="576"/>
      <point x="80" y="569"/>
      <point x="80" y="515" type="curve" smooth="yes"/>
      <point x="80" y="384"/>
      <point x="345" y="130"/>
      <point x="476" y="130" type="curve" smooth="yes"/>
      <point x="546" y="130"/>
      <point x="559" y="277"/>
      <point x="559" y="366" type="curve"/>
      <point x="930" y="366" type="line"/>
      <point x="443" y="-41" type="line"/>
      <point x="665" y="-211" type="line"/>
    </contour>
  </outline>
</glyph>
<glyph name="uni0931094D092F" format="1">
  <advance width="1923"/>
  <outline>
    <contour>
      <point x="1975" y="997.999" type="line"/>
      <point x="1930" y="1187" type="line"/>
      <point x="-51" y="1187" type="line"/>
      <point x="-0.999999" y="997.999" type="line"/>
      <point x="882" y="997.999" type="line"/>
      <point x="961" y="945"/>
      <point x="986.999" y="888"/>
      <point x="986.999" y="838" type="curve" smooth="yes"/>
      <point x="986.999" y="764"/>
      <point x="905" y="708"/>
      <point x="686" y="652" type="curve"/>
      <point x="691" y="632"/>
      <point x="695" y="612"/>
      <point x="701" y="592" type="curve"/>
      <point x="616" y="539"/>
      <point x="543" y="523"/>
      <point x="448" y="523" type="curve" smooth="yes"/>
      <point x="376" y="523"/>
      <point x="241" y="538"/>
      <point x="137" y="662" type="curve"/>
      <point x="54" y="602" type="line"/>
      <point x="75" y="558"/>
      <point x="119" y="489"/>
      <point x="178" y="435" type="curve" smooth="yes"/>
      <point x="300" y="326"/>
      <point x="414" y="290"/>
      <point x="541" y="290" type="curve" smooth="yes"/>
      <point x="641" y="290"/>
      <point x="734" y="308"/>
      <point x="806" y="352" type="curve"/>
      <point x="913" y="189"/>
      <point x="1065" y="110"/>
      <point x="1227" y="110" type="curve" smooth="yes"/>
      <point x="1314" y="110"/>
      <point x="1408" y="128"/>
      <point x="1503" y="180" type="curve"/>
      <point x="1503" y="-41" type="line"/>
      <point x="1800" y="-99.9999" type="line"/>
      <point x="1800" y="997.999" type="line"/>
    </contour>
    <contour>
      <point x="1073" y="358"/>
      <point x="992.999" y="377"/>
      <point x="943" y="440" type="curve"/>
      <point x="1165" y="508"/>
      <point x="1280" y="625"/>
      <point x="1280" y="741" type="curve" smooth="yes"/>
      <point x="1280" y="824"/>
      <point x="1239" y="909"/>
      <point x="1128" y="997.999" type="curve"/>
      <point x="1503" y="997.999" type="line"/>
      <point x="1503" y="587" type="line"/>
      <point x="1443" y="453"/>
      <point x="1304" y="358"/>
      <point x="1161" y="358" type="curve" smooth="yes"/>
    </contour>
  </outline>
</glyph>
<glyph name="uni0936094D0930094D092F" format="1">
  <advance width="2194"/>
  <outline>
    <contour>
      <point x="2246" y="997.999" type="line"/>
      <point x="2201" y="1187" type="line"/>
      <point x="846" y="1187" type="line"/>
      <point x="893" y="997.999" type="line"/>
      <point x="1153" y="997.999" type="line"/>
      <point x="1232" y="945"/>
      <point x="1258" y="888"/>
      <point x="1258" y="838" type="curve" smooth="yes"/>
      <point x="1258" y="764"/>
      <point x="1176" y="708"/>
      <point x="957" y="652" type="curve"/>
      <point x="967" y="612" type="line"/>
      <point x="915" y="596"/>
      <point x="859" y="584"/>
      <point x="792" y="584" type="curve" smooth="yes"/>
      <point x="748" y="584"/>
      <point x="704" y="590"/>
      <point x="661" y="600" type="curve"/>
      <point x="751" y="676"/>
      <point x="811" y="761"/>
      <point x="810" y="861" type="curve" smooth="yes"/>
      <point x="809" y="990.999"/>
      <point x="682" y="1207"/>
      <point x="403" y="1207" type="curve" smooth="yes"/>
      <point x="264" y="1207"/>
      <point x="91" y="1159"/>
      <point x="89" y="935" type="curve" smooth="yes"/>
      <point x="88" y="808"/>
      <point x="153" y="704"/>
      <point x="250" y="622" type="curve"/>
      <point x="132" y="568"/>
      <point x="36" y="540"/>
      <point x="-34" y="518" type="curve"/>
      <point x="52" y="294" type="line"/>
      <point x="151" y="320"/>
      <point x="308" y="368"/>
      <point x="494" y="482" type="curve"/>
      <point x="576" y="449"/>
      <point x="662" y="425"/>
      <point x="743" y="409" type="curve"/>
      <point x="173" y="121" type="line"/>
      <point x="349" y="-96.9999" type="line"/>
      <point x="1067" y="368" type="line"/>
      <point x="1174" y="194"/>
      <point x="1331" y="110"/>
      <point x="1498" y="110" type="curve" smooth="yes"/>
      <point x="1585" y="110"/>
      <point x="1679" y="128"/>
      <point x="1774" y="180" type="curve"/>
      <point x="1774" y="-41" type="line"/>
      <point x="2071" y="-99.9999" type="line"/>
      <point x="2071" y="997.999" type="line"/>
    </contour>
    <contour>
      <point x="519" y="1049"/>
      <point x="558" y="1043"/>
      <point x="570" y="1029" type="curve" smooth="yes"/>
      <point x="578" y="1020"/>
      <point x="591" y="973.999"/>
      <point x="591" y="937" type="curve" smooth="yes"/>
      <point x="591" y="846"/>
      <point x="536" y="785"/>
      <point x="443" y="726" type="curve"/>
      <point x="397" y="779"/>
      <point x="368" y="846"/>
      <point x="368" y="924" type="curve" smooth="yes"/>
      <point x="368" y="991.999"/>
      <point x="414" y="1048"/>
      <point x="491" y="1049" type="curve" smooth="yes"/>
    </contour>
    <contour>
      <point x="1344" y="358"/>
      <point x="1264" y="377"/>
      <point x="1214" y="440" type="curve"/>
      <point x="1436" y="508"/>
      <point x="1551" y="625"/>
      <point x="1551" y="741" type="curve" smooth="yes"/>
      <point x="1551" y="824"/>
      <point x="1510" y="909"/>
      <point x="1399" y="997.999" type="curve"/>
      <point x="1774" y="997.999" type="line"/>
      <point x="1774" y="587" type="line"/>
      <point x="1714" y="453"/>
      <point x="1575" y="358"/>
      <point x="1432" y="358" type="curve" smooth="yes"/>
    </contour>
  </outline>
</glyph>
<glyph name="uni0936094D0932.loclMAR" format="1">
  <advance width="2274"/>
  <outline>
    <contour>
      <point x="1984" y="820"/>
      <point x="1985" y="847"/>
      <point x="1983" y="871" type="curve" smooth="yes"/>
      <point x="1980" y="916"/>
      <point x="1969" y="958"/>
      <point x="1952" y="997.999" type="curve"/>
      <point x="2326" y="997.999" type="line"/>
      <point x="2282" y="1187" type="line"/>
      <point x="798" y="1187" type="line"/>
      <point x="848" y="997.999" type="line"/>
      <point x="1762" y="997.999" type="line"/>
      <point x="1763" y="983.999"/>
      <point x="1763" y="970.999"/>
      <point x="1762" y="957" type="curve" smooth="yes"/>
      <point x="1760" y="910"/>
      <point x="1751" y="859"/>
      <point x="1733" y="814" type="curve"/>
      <point x="1657" y="796"/>
      <point x="1587" y="760"/>
      <point x="1538" y="707" type="curve"/>
      <point x="1434" y="785"/>
      <point x="1333" y="820"/>
      <point x="1240" y="820" type="curve" smooth="yes"/>
      <point x="1137" y="820"/>
      <point x="1034" y="788"/>
      <point x="971.999" y="712" type="curve"/>
      <point x="921" y="697"/>
      <point x="861" y="684"/>
      <point x="796" y="684" type="curve" smooth="yes"/>
      <point x="771" y="684"/>
      <point x="745" y="685"/>
      <point x="721" y="687" type="curve"/>
      <point x="781" y="747"/>
      <point x="811" y="809"/>
      <point x="810" y="861" type="curve" smooth="yes"/>
      <point x="809" y="990.999"/>
      <point x="682" y="1207"/>
      <point x="403" y="1207" type="curve" smooth="yes"/>
      <point x="264" y="1207"/>
      <point x="92" y="1133"/>
      <point x="89" y="956" type="curve" smooth="yes"/>
      <point x="88" y="851"/>
      <point x="153" y="765"/>
      <point x="252" y="696" type="curve"/>
      <point x="145" y="666"/>
      <point x="39" y="646"/>
      <point x="-44" y="630" type="curve"/>
      <point x="57" y="401" type="line"/>
      <point x="145" y="420"/>
      <point x="344" y="468"/>
      <point x="538" y="564" type="curve"/>
      <point x="671" y="523"/>
      <point x="809" y="500"/>
      <point x="916" y="496" type="curve"/>
      <point x="933" y="293"/>
      <point x="1097" y="83"/>
      <point x="1440" y="-97.9999" type="curve"/>
      <point x="1510" y="9" type="line"/>
      <point x="1277" y="184"/>
      <point x="1216" y="348"/>
      <point x="1216" y="477" type="curve" smooth="yes"/>
      <point x="1216" y="592"/>
      <point x="1278" y="662"/>
      <point x="1381" y="662" type="curve" smooth="yes"/>
      <point x="1410" y="662"/>
      <point x="1452" y="654"/>
      <point x="1490" y="639" type="curve"/>
      <point x="1455" y="574"/>
      <point x="1434" y="493"/>
      <point x="1424" y="409" type="curve"/>
      <point x="1689" y="349" type="line"/>
      <point x="1736" y="618"/>
      <point x="1851" y="690"/>
      <point x="1934" y="690" type="curve" smooth="yes"/>
      <point x="1981" y="689"/>
      <point x="2018" y="673"/>
      <point x="2028" y="660" type="curve" smooth="yes"/>
      <point x="2042" y="643"/>
      <point x="2049" y="588"/>
      <point x="2049" y="563" type="curve" smooth="yes"/>
      <point x="2049" y="378"/>
      <point x="1873" y="228"/>
      <point x="1690" y="78" type="curve"/>
      <point x="1929" y="-97.9999" type="line"/>
      <point x="2146" y="67"/>
      <point x="2230" y="224"/>
      <point x="2230" y="419" type="curve" smooth="yes"/>
      <point x="2230" y="568"/>
      <point x="2122" y="727"/>
      <point x="1981" y="794" type="curve"/>
    </contour>
    <contour>
      <point x="519" y="1049"/>
      <point x="558" y="1043"/>
      <point x="570" y="1029" type="curve" smooth="yes"/>
      <point x="578" y="1020"/>
      <point x="591" y="988.999"/>
      <point x="591" y="947" type="curve" smooth="yes"/>
      <point x="591" y="885"/>
      <point x="535" y="821"/>
      <point x="453" y="774" type="curve"/>
      <point x="400" y="812"/>
      <point x="368" y="863"/>
      <point x="368" y="924" type="curve" smooth="yes"/>
      <point x="368" y="991.999"/>
      <point x="414" y="1048"/>
      <point x="491" y="1049" type="curve" smooth="yes"/>
    </contour>
  </outline>
</glyph>
<glyph name="uni093F0930094D0902.0" format="1">
  <advance width="557"/>
  <outline>
    <contour>
      <point x="1070" y="1552"/>
      <point x="1124" y="1621"/>
      <point x="1214" y="1621" type="curve" smooth="yes"/>
      <point x="1283" y="1621"/>
      <point x="1335" y="1608"/>
      <point x="1422" y="1553" type="curve"/>
      <point x="1361" y="1728" type="line"/>
      <point x="1296" y="1769"/>
      <point x="1213" y="1799"/>
      <point x="1108" y="1799" type="curve" smooth="yes"/>
      <point x="974.999" y="1799"/>
      <point x="837" y="1731"/>
      <point x="837" y="1565" type="curve" smooth="yes"/>
      <point x="837" y="1557"/>
      <point x="838" y="1549"/>
      <point x="839" y="1541" type="curve"/>
      <point x="683" y="1639"/>
      <point x="513" y="1711"/>
      <point x="363" y="1711" type="curve" smooth="yes"/>
      <point x="160" y="1711"/>
      <point x="60" y="1609"/>
      <point x="60" y="1458" type="curve" smooth="yes"/>
      <point x="60" y="1377"/>
      <point x="120" y="1274"/>
      <point x="178" y="1187" type="curve"/>
      <point x="-52" y="1187" type="line"/>
      <point x="-0.999999" y="997.999" type="line"/>
      <point x="145" y="997.999" type="line"/>
      <point x="145" y="-42" type="line"/>
      <point x="442" y="-97.9999" type="line"/>
      <point x="442" y="997.999" type="line"/>
      <point x="602" y="997.999" type="line"/>
      <point x="557" y="1187" type="line"/>
      <point x="374" y="1187" type="line"/>
      <point x="351" y="1232"/>
      <point x="332" y="1289"/>
      <point x="332" y="1330" type="curve" smooth="yes"/>
      <point x="332" y="1436"/>
      <point x="422" y="1468"/>
      <point x="487" y="1468" type="curve" smooth="yes"/>
      <point x="612" y="1468"/>
      <point x="800" y="1374"/>
      <point x="1038" y="1209" type="curve"/>
      <point x="1125" y="1325" type="line"/>
      <point x="1094" y="1369"/>
      <point x="1069" y="1422"/>
      <point x="1069" y="1486" type="curve" smooth="yes"/>
    </contour>
    <contour>
      <point x="1224" y="1564"/>
      <point x="1130" y="1469"/>
      <point x="1130" y="1427" type="curve" smooth="yes"/>
      <point x="1130" y="1383"/>
      <point x="1227" y="1290"/>
      <point x="1266" y="1290" type="curve" smooth="yes"/>
      <point x="1304" y="1290"/>
      <point x="1404" y="1382"/>
      <point x="1404" y="1427" type="curve" smooth="yes"/>
      <point x="1404" y="1463"/>
      <point x="1309" y="1564"/>
      <point x="1266" y="1564" type="curve" smooth="yes"/>
    </contour>
  </outline>
</glyph>
<glyph name="uni093F0930094D0902.02" format="1">
  <advance width="557"/>
  <outline>
    <contour>
      <point x="1406" y="1554"/>
      <point x="1460" y="1623"/>
      <point x="1550" y="1623" type="curve" smooth="yes"/>
      <point x="1619" y="1623"/>
      <point x="1671" y="1610"/>
      <point x="1758" y="1555" type="curve"/>
      <point x="1697" y="1730" type="line"/>
      <point x="1632" y="1771"/>
      <point x="1549" y="1801"/>
      <point x="1444" y="1801" type="curve" smooth="yes"/>
      <point x="1311" y="1801"/>
      <point x="1173" y="1733"/>
      <point x="1173" y="1567" type="curve" smooth="yes"/>
      <point x="1173" y="1543"/>
      <point x="1179" y="1517"/>
      <point x="1188" y="1491" type="curve"/>
      <point x="936" y="1619"/>
      <point x="643" y="1713"/>
      <point x="414" y="1713" type="curve" smooth="yes"/>
      <point x="172" y="1713"/>
      <point x="61" y="1615"/>
      <point x="60" y="1455" type="curve" smooth="yes"/>
      <point x="60" y="1375"/>
      <point x="120" y="1273"/>
      <point x="179" y="1187" type="curve"/>
      <point x="-51" y="1187" type="line"/>
      <point x="-0.999999" y="997.999" type="line"/>
      <point x="145" y="997.999" type="line"/>
      <point x="145" y="-41" type="line"/>
      <point x="442" y="-96.9999" type="line"/>
      <point x="442" y="997.999" type="line"/>
      <point x="597" y="997.999" type="line"/>
      <point x="558" y="1187" type="line"/>
      <point x="375" y="1187" type="line"/>
      <point x="352" y="1232"/>
      <point x="334" y="1287"/>
      <point x="334" y="1328" type="curve" smooth="yes"/>
      <point x="334" y="1441"/>
      <point x="431" y="1475"/>
      <point x="539" y="1475" type="curve" smooth="yes"/>
      <point x="744" y="1475"/>
      <point x="1054" y="1404"/>
      <point x="1375" y="1210" type="curve"/>
      <point x="1461" y="1327" type="line"/>
      <point x="1430" y="1371"/>
      <point x="1405" y="1424"/>
      <point x="1405" y="1488" type="curve" smooth="yes"/>
    </contour>
    <contour>
      <point x="1560" y="1566"/>
      <point x="1466" y="1471"/>
      <point x="1466" y="1429" type="curve" smooth="yes"/>
      <point x="1466" y="1385"/>
      <point x="1563" y="1292"/>
      <point x="1602" y="1292" type="curve" smooth="yes"/>
      <point x="1640" y="1292"/>
      <point x="1740" y="1384"/>
      <point x="1740" y="1429" type="curve" smooth="yes"/>
      <point x="1740" y="1465"/>
      <point x="1645" y="1566"/>
      <point x="1602" y="1566" type="curve" smooth="yes"/>
    </contour>
  </outline>
</glyph>
<glyph name="uni093F0930094D0902.03" format="1">
  <advance width="557"/>
  <outline>
    <contour>
      <point x="1521" y="1556"/>
      <point x="1575" y="1625"/>
      <point x="1665" y="1625" type="curve" smooth="yes"/>
      <point x="1734" y="1625"/>
      <point x="1786" y="1612"/>
      <point x="1873" y="1557" type="curve"/>
      <point x="1812" y="1732" type="line"/>
      <point x="1747" y="1773"/>
      <point x="1664" y="1803"/>
      <point x="1559" y="1803" type="curve" smooth="yes"/>
      <point x="1426" y="1803"/>
      <point x="1288" y="1735"/>
      <point x="1288" y="1569" type="curve" smooth="yes"/>
      <point x="1288" y="1541"/>
      <point x="1296" y="1510"/>
      <point x="1309" y="1478" type="curve"/>
      <point x="1025" y="1613"/>
      <point x="685" y="1714"/>
      <point x="431" y="1714" type="curve" smooth="yes"/>
      <point x="176" y="1714"/>
      <point x="62" y="1617"/>
      <point x="60" y="1454" type="curve" smooth="yes"/>
      <point x="60" y="1373"/>
      <point x="120" y="1271"/>
      <point x="178" y="1187" type="curve"/>
      <point x="-53" y="1187" type="line"/>
      <point x="-2" y="997.999" type="line"/>
      <point x="145" y="997.999" type="line"/>
      <point x="145" y="-41" type="line"/>
      <point x="442" y="-95.9999" type="line"/>
      <point x="442" y="997.999" type="line"/>
      <point x="603" y="997.999" type="line"/>
      <point x="558" y="1187" type="line"/>
      <point x="375" y="1187" type="line"/>
      <point x="353" y="1231"/>
      <point x="334" y="1286"/>
      <point x="334" y="1327" type="curve" smooth="yes"/>
      <point x="334" y="1442"/>
      <point x="434" y="1476"/>
      <point x="556" y="1476" type="curve" smooth="yes"/>
      <point x="787" y="1476"/>
      <point x="1140" y="1410"/>
      <point x="1489" y="1211" type="curve"/>
      <point x="1576" y="1329" type="line"/>
      <point x="1545" y="1373"/>
      <point x="1520" y="1426"/>
      <point x="1520" y="1490" type="curve" smooth="yes"/>
    </contour>
    <contour>
      <point x="1675" y="1568"/>
      <point x="1581" y="1473"/>
      <point x="1581" y="1431" type="curve" smooth="yes"/>
      <point x="1581" y="1387"/>
      <point x="1678" y="1294"/>
      <point x="1717" y="1294" type="curve" smooth="yes"/>
      <point x="1755" y="1294"/>
      <point x="1855" y="1386"/>
      <point x="1855" y="1431" type="curve" smooth="yes"/>
      <point x="1855" y="1467"/>
      <point x="1760" y="1568"/>
      <point x="1717" y="1568" type="curve" smooth="yes"/>
    </contour>
  </outline>
</glyph>
<glyph name="uni093F0930094D0902.05" format="1">
  <advance width="557"/>
  <outline>
    <contour>
      <point x="1746" y="1557"/>
      <point x="1800" y="1626"/>
      <point x="1890" y="1626" type="curve" smooth="yes"/>
      <point x="1959" y="1626"/>
      <point x="2011" y="1613"/>
      <point x="2098" y="1558" type="curve"/>
      <point x="2037" y="1733" type="line"/>
      <point x="1972" y="1774"/>
      <point x="1889" y="1804"/>
      <point x="1784" y="1804" type="curve" smooth="yes"/>
      <point x="1651" y="1804"/>
      <point x="1513" y="1736"/>
      <point x="1513" y="1570" type="curve" smooth="yes"/>
      <point x="1513" y="1536"/>
      <point x="1524" y="1498"/>
      <point x="1542" y="1460" type="curve"/>
      <point x="1198" y="1610"/>
      <point x="769" y="1716"/>
      <point x="466" y="1716" type="curve" smooth="yes"/>
      <point x="183" y="1716"/>
      <point x="62" y="1621"/>
      <point x="61" y="1453" type="curve" smooth="yes"/>
      <point x="60" y="1371"/>
      <point x="120" y="1271"/>
      <point x="179" y="1187" type="curve"/>
      <point x="-50" y="1187" type="line"/>
      <point x="-0.999999" y="997.999" type="line"/>
      <point x="145" y="997.999" type="line"/>
      <point x="145" y="-41" type="line"/>
      <point x="442" y="-96.9999" type="line"/>
      <point x="442" y="997.999" type="line"/>
      <point x="604" y="997.999" type="line"/>
      <point x="558" y="1187" type="line"/>
      <point x="376" y="1187" type="line"/>
      <point x="353" y="1231"/>
      <point x="335" y="1284"/>
      <point x="335" y="1325" type="curve" smooth="yes"/>
      <point x="335" y="1445"/>
      <point x="440" y="1481"/>
      <point x="591" y="1481" type="curve" smooth="yes"/>
      <point x="875" y="1481"/>
      <point x="1316" y="1423"/>
      <point x="1715" y="1213" type="curve"/>
      <point x="1801" y="1330" type="line"/>
      <point x="1800" y="1331" type="line"/>
      <point x="1770" y="1374"/>
      <point x="1745" y="1427"/>
      <point x="1745" y="1491" type="curve" smooth="yes"/>
    </contour>
    <contour>
      <point x="1900" y="1569"/>
      <point x="1806" y="1474"/>
      <point x="1806" y="1432" type="curve" smooth="yes"/>
      <point x="1806" y="1388"/>
      <point x="1903" y="1295"/>
      <point x="1942" y="1295" type="curve" smooth="yes"/>
      <point x="1980" y="1295"/>
      <point x="2080" y="1387"/>
      <point x="2080" y="1432" type="curve" smooth="yes"/>
      <point x="2080" y="1468"/>
      <point x="1985" y="1569"/>
      <point x="1942" y="1569" type="curve" smooth="yes"/>
    </contour>
  </outline>
</glyph>
<glyph name="uni093F0930094D0902.10" format="1">
  <advance width="557"/>
  <outline>
    <contour>
      <point x="2308" y="1560"/>
      <point x="2362" y="1629"/>
      <point x="2452" y="1629" type="curve" smooth="yes"/>
      <point x="2521" y="1629"/>
      <point x="2573" y="1616"/>
      <point x="2660" y="1561" type="curve"/>
      <point x="2599" y="1736" type="line"/>
      <point x="2534" y="1777"/>
      <point x="2451" y="1807"/>
      <point x="2346" y="1807" type="curve" smooth="yes"/>
      <point x="2213" y="1807"/>
      <point x="2075" y="1739"/>
      <point x="2075" y="1573" type="curve" smooth="yes"/>
      <point x="2075" y="1530"/>
      <point x="2093" y="1480"/>
      <point x="2121" y="1432" type="curve"/>
      <point x="1629" y="1609"/>
      <point x="976.999" y="1719"/>
      <point x="551" y="1719" type="curve" smooth="yes"/>
      <point x="203" y="1719"/>
      <point x="64" y="1630"/>
      <point x="61" y="1448" type="curve" smooth="yes"/>
      <point x="60" y="1367"/>
      <point x="120" y="1268"/>
      <point x="178" y="1187" type="curve"/>
      <point x="-53" y="1187" type="line"/>
      <point x="-0.999999" y="997.999" type="line"/>
      <point x="145" y="997.999" type="line"/>
      <point x="145" y="-41" type="line"/>
      <point x="442" y="-96.9999" type="line"/>
      <point x="442" y="997.999" type="line"/>
      <point x="605" y="997.999" type="line"/>
      <point x="558" y="1187" type="line"/>
      <point x="377" y="1187" type="line"/>
      <point x="355" y="1230"/>
      <point x="338" y="1281"/>
      <point x="338" y="1321" type="curve" smooth="yes"/>
      <point x="338" y="1453"/>
      <point x="454" y="1492"/>
      <point x="677" y="1492" type="curve" smooth="yes"/>
      <point x="1088" y="1492"/>
      <point x="1739" y="1445"/>
      <point x="2280" y="1215" type="curve"/>
      <point x="2363" y="1333" type="line"/>
      <point x="2362" y="1333" type="line"/>
      <point x="2363" y="1334" type="line"/>
      <point x="2332" y="1377"/>
      <point x="2307" y="1430"/>
      <point x="2307" y="1494" type="curve" smooth="yes"/>
    </contour>
    <contour>
      <point x="2462" y="1572"/>
      <point x="2368" y="1477"/>
      <point x="2368" y="1435" type="curve" smooth="yes"/>
      <point x="2368" y="1391"/>
      <point x="2465" y="1298"/>
      <point x="2504" y="1298" type="curve" smooth="yes"/>
      <point x="2542" y="1298"/>
      <point x="2642" y="1390"/>
      <point x="2642" y="1435" type="curve" smooth="yes"/>
      <point x="2642" y="1471"/>
      <point x="2547" y="1572"/>
      <point x="2504" y="1572" type="curve" smooth="yes"/>
    </contour>
  </outline>
</glyph>
<glyph name="uni093F0930094D0902.15" format="1">
  <advance width="557"/>
  <outline>
    <contour>
      <point x="2872" y="1561"/>
      <point x="2926" y="1630"/>
      <point x="3016" y="1630" type="curve" smooth="yes"/>
      <point x="3085" y="1630"/>
      <point x="3137" y="1617"/>
      <point x="3224" y="1562" type="curve"/>
      <point x="3163" y="1737" type="line"/>
      <point x="3098" y="1778"/>
      <point x="3015" y="1808"/>
      <point x="2910" y="1808" type="curve" smooth="yes"/>
      <point x="2777" y="1808"/>
      <point x="2639" y="1740"/>
      <point x="2639" y="1574" type="curve" smooth="yes"/>
      <point x="2639" y="1525"/>
      <point x="2663" y="1467"/>
      <point x="2697" y="1413" type="curve"/>
      <point x="2061" y="1609"/>
      <point x="1178" y="1723"/>
      <point x="637" y="1723" type="curve" smooth="yes"/>
      <point x="222" y="1723"/>
      <point x="66" y="1640"/>
      <point x="62" y="1444" type="curve" smooth="yes"/>
      <point x="60" y="1362"/>
      <point x="121" y="1264"/>
      <point x="179" y="1187" type="curve"/>
      <point x="-52" y="1187" type="line"/>
      <point x="-0.999999" y="997.999" type="line"/>
      <point x="145" y="997.999" type="line"/>
      <point x="145" y="-40" type="line"/>
      <point x="442" y="-95.9999" type="line"/>
      <point x="442" y="997.999" type="line"/>
      <point x="603" y="997.999" type="line"/>
      <point x="558" y="1187" type="line"/>
      <point x="379" y="1187" type="line"/>
      <point x="357" y="1230"/>
      <point x="341" y="1277"/>
      <point x="341" y="1317" type="curve" smooth="yes"/>
      <point x="341" y="1460"/>
      <point x="469" y="1503"/>
      <point x="764" y="1503" type="curve" smooth="yes"/>
      <point x="1303" y="1503"/>
      <point x="2159" y="1462"/>
      <point x="2842" y="1217" type="curve"/>
      <point x="2927" y="1334" type="line"/>
      <point x="2926" y="1334" type="line"/>
      <point x="2927" y="1335" type="line"/>
      <point x="2896" y="1378"/>
      <point x="2871" y="1431"/>
      <point x="2871" y="1495" type="curve" smooth="yes"/>
    </contour>
    <contour>
      <point x="3026" y="1573"/>
      <point x="2932" y="1478"/>
      <point x="2932" y="1436" type="curve" smooth="yes"/>
      <point x="2932" y="1392"/>
      <point x="3029" y="1299"/>
      <point x="3068" y="1299" type="curve" smooth="yes"/>
      <point x="3106" y="1299"/>
      <point x="3206" y="1391"/>
      <point x="3206" y="1436" type="curve" smooth="yes"/>
      <point x="3206" y="1472"/>
      <point x="3111" y="1573"/>
      <point x="3068" y="1573" type="curve" smooth="yes"/>
    </contour>
  </outline>
</glyph>
<glyph name="uni093F0930094D0902.20" format="1">
  <advance width="557"/>
  <outline>
    <contour>
      <point x="3320" y="1561"/>
      <point x="3374" y="1630"/>
      <point x="3464" y="1630" type="curve" smooth="yes"/>
      <point x="3533" y="1630"/>
      <point x="3585" y="1617"/>
      <point x="3672" y="1562" type="curve"/>
      <point x="3611" y="1737" type="line"/>
      <point x="3546" y="1778"/>
      <point x="3463" y="1808"/>
      <point x="3358" y="1808" type="curve" smooth="yes"/>
      <point x="3225" y="1808"/>
      <point x="3087" y="1740"/>
      <point x="3087" y="1574" type="curve" smooth="yes"/>
      <point x="3087" y="1522"/>
      <point x="3114" y="1459"/>
      <point x="3152" y="1402" type="curve"/>
      <point x="2403" y="1610"/>
      <point x="1341" y="1726"/>
      <point x="705" y="1726" type="curve" smooth="yes"/>
      <point x="237" y="1726"/>
      <point x="67" y="1648"/>
      <point x="62" y="1440" type="curve" smooth="yes"/>
      <point x="60" y="1358"/>
      <point x="121" y="1262"/>
      <point x="177" y="1187" type="curve"/>
      <point x="-52" y="1187" type="line"/>
      <point x="-0.999999" y="997.999" type="line"/>
      <point x="145" y="997.999" type="line"/>
      <point x="145" y="-42" type="line"/>
      <point x="442" y="-97.9999" type="line"/>
      <point x="442" y="997.999" type="line"/>
      <point x="604" y="997.999" type="line"/>
      <point x="558" y="1187" type="line"/>
      <point x="379" y="1187" type="line"/>
      <point x="358" y="1229"/>
      <point x="342" y="1273"/>
      <point x="342" y="1314" type="curve" smooth="yes"/>
      <point x="342" y="1466"/>
      <point x="481" y="1511"/>
      <point x="833" y="1511" type="curve" smooth="yes"/>
      <point x="1473" y="1511"/>
      <point x="2494" y="1468"/>
      <point x="3293" y="1219" type="curve"/>
      <point x="3375" y="1334" type="line"/>
      <point x="3374" y="1334" type="line"/>
      <point x="3375" y="1335" type="line"/>
      <point x="3344" y="1378"/>
      <point x="3319" y="1431"/>
      <point x="3319" y="1495" type="curve" smooth="yes"/>
    </contour>
    <contour>
      <point x="3474" y="1573"/>
      <point x="3380" y="1478"/>
      <point x="3380" y="1436" type="curve" smooth="yes"/>
      <point x="3380" y="1392"/>
      <point x="3477" y="1299"/>
      <point x="3516" y="1299" type="curve" smooth="yes"/>
      <point x="3554" y="1299"/>
      <point x="3654" y="1391"/>
      <point x="3654" y="1436" type="curve" smooth="yes"/>
      <point x="3654" y="1472"/>
      <point x="3559" y="1573"/>
      <point x="3516" y="1573" type="curve" smooth="yes"/>
    </contour>
  </outline>
</glyph>
<glyph name="uni093F0930094D0902.25" format="1">
  <advance width="557"/>
  <outline>
    <contour>
      <point x="3882" y="1562"/>
      <point x="3936" y="1631"/>
      <point x="4026" y="1631" type="curve" smooth="yes"/>
      <point x="4095" y="1631"/>
      <point x="4147" y="1618"/>
      <point x="4234" y="1563" type="curve"/>
      <point x="4173" y="1738" type="line"/>
      <point x="4108" y="1779"/>
      <point x="4025" y="1809"/>
      <point x="3920" y="1809" type="curve" smooth="yes"/>
      <point x="3787" y="1809"/>
      <point x="3649" y="1741"/>
      <point x="3649" y="1575" type="curve" smooth="yes"/>
      <point x="3649" y="1519"/>
      <point x="3680" y="1452"/>
      <point x="3721" y="1392" type="curve"/>
      <point x="2831" y="1609"/>
      <point x="1543" y="1730"/>
      <point x="790" y="1730" type="curve" smooth="yes"/>
      <point x="257" y="1730"/>
      <point x="69" y="1657"/>
      <point x="62" y="1435" type="curve" smooth="yes"/>
      <point x="60" y="1353"/>
      <point x="121" y="1260"/>
      <point x="178" y="1187" type="curve"/>
      <point x="-52" y="1187" type="line"/>
      <point x="-0.999999" y="997.999" type="line"/>
      <point x="145" y="997.999" type="line"/>
      <point x="145" y="-40" type="line"/>
      <point x="442" y="-96.9999" type="line"/>
      <point x="442" y="997.999" type="line"/>
      <point x="603" y="997.999" type="line"/>
      <point x="558" y="1187" type="line"/>
      <point x="381" y="1187" type="line"/>
      <point x="360" y="1228"/>
      <point x="345" y="1269"/>
      <point x="345" y="1310" type="curve" smooth="yes"/>
      <point x="345" y="1473"/>
      <point x="495" y="1522"/>
      <point x="920" y="1522" type="curve" smooth="yes"/>
      <point x="1682" y="1522"/>
      <point x="2915" y="1465"/>
      <point x="3857" y="1220" type="curve"/>
      <point x="3937" y="1335" type="line"/>
      <point x="3936" y="1335" type="line"/>
      <point x="3937" y="1336" type="line"/>
      <point x="3906" y="1379"/>
      <point x="3881" y="1432"/>
      <point x="3881" y="1496" type="curve" smooth="yes"/>
    </contour>
    <contour>
      <point x="4036" y="1574"/>
      <point x="3942" y="1479"/>
      <point x="3942" y="1437" type="curve" smooth="yes"/>
      <point x="3942" y="1393"/>
      <point x="4039" y="1300"/>
      <point x="4078" y="1300" type="curve" smooth="yes"/>
      <point x="4116" y="1300"/>
      <point x="4216" y="1392"/>
      <point x="4216" y="1437" type="curve" smooth="yes"/>
      <point x="4216" y="1473"/>
      <point x="4121" y="1574"/>
      <point x="4078" y="1574" type="curve" smooth="yes"/>
    </contour>
  </outline>
</glyph>
<glyph name="uni094D09300941" format="1">
  <advance width="0"/>
  <outline>
    <contour>
      <point x="287" y="-92" type="line"/>
      <point x="614" y="-457" type="line"/>
      <point x="740" y="-322" type="line"/>
      <point x="255" y="113" type="line"/>
      <point x="-230" y="-282" type="line"/>
      <point x="-3" y="-467" type="line"/>
      <point x="0.999999" y="-462" type="line"/>
      <point x="140" y="-640" type="line"/>
      <point x="235" y="-561"/>
      <point x="293" y="-546"/>
      <point x="344" y="-546" type="curve" smooth="yes"/>
      <point x="385" y="-546"/>
      <point x="415" y="-558"/>
      <point x="426" y="-571" type="curve"/>
      <point x="431" y="-576"/>
      <point x="436" y="-594"/>
      <point x="436" y="-618" type="curve" smooth="yes"/>
      <point x="436" y="-685"/>
      <point x="372" y="-769"/>
      <point x="234" y="-769" type="curve" smooth="yes"/>
      <point x="34" y="-769"/>
      <point x="-81" y="-667"/>
      <point x="-170" y="-574" type="curve"/>
      <point x="-258" y="-646" type="line"/>
      <point x="-192" y="-742"/>
      <point x="0.999999" y="-963"/>
      <point x="289" y="-963" type="curve" smooth="yes"/>
      <point x="483" y="-963"/>
      <point x="605" y="-849"/>
      <point x="605" y="-704" type="curve" smooth="yes"/>
      <point x="605" y="-561"/>
      <point x="438" y="-357"/>
      <point x="237" y="-357" type="curve" smooth="yes"/>
      <point x="167" y="-357"/>
      <point x="105" y="-370"/>
      <point x="38" y="-413" type="curve"/>
    </contour>
  </outline>
</glyph>
<glyph name="uni094D09300942" format="1">
  <advance width="0"/>
  <outline>
    <contour>
      <point x="614" y="-457" type="line"/>
      <point x="740" y="-322" type="line"/>
      <point x="255" y="113" type="line"/>
      <point x="-230" y="-282" type="line"/>
      <point x="-3" y="-467" type="line"/>
      <point x="287" y="-92" type="line"/>
    </contour>
    <contour>
      <point x="57" y="-358"/>
      <point x="-56" y="-486"/>
      <point x="-56" y="-619" type="curve" smooth="yes"/>
      <point x="-56" y="-807"/>
      <point x="134" y="-950"/>
      <point x="292" y="-950" type="curve" smooth="yes"/>
      <point x="359" y="-950"/>
      <point x="419" y="-936"/>
      <point x="481" y="-891" type="curve"/>
      <point x="400" y="-693" type="line"/>
      <point x="331" y="-739"/>
      <point x="280" y="-756"/>
      <point x="226" y="-756" type="curve" smooth="yes"/>
      <point x="181" y="-756"/>
      <point x="145" y="-748"/>
      <point x="136" y="-742" type="curve" smooth="yes"/>
      <point x="127" y="-736"/>
      <point x="122" y="-699"/>
      <point x="122" y="-680" type="curve" smooth="yes"/>
      <point x="122" y="-608"/>
      <point x="190" y="-575"/>
      <point x="290" y="-575" type="curve" smooth="yes"/>
      <point x="424" y="-575"/>
      <point x="564" y="-686"/>
      <point x="712" y="-884" type="curve"/>
      <point x="795" y="-821" type="line"/>
      <point x="783" y="-789"/>
      <point x="730" y="-693"/>
      <point x="693" y="-639" type="curve" smooth="yes"/>
      <point x="593" y="-495"/>
      <point x="451" y="-358"/>
      <point x="263" y="-358" type="curve" smooth="yes"/>
    </contour>
  </outline>
</glyph>
<glyph name="vadeva_viramadeva_hadeva" format="1">
  <advance width="1627"/>
  <outline>
    <contour>
      <point x="1045" y="548"/>
      <point x="972.999" y="539"/>
      <point x="905" y="519" type="curve"/>
      <point x="902" y="541"/>
      <point x="901" y="559"/>
      <point x="904" y="583" type="curve" smooth="yes"/>
      <point x="914" y="649"/>
      <point x="962" y="672"/>
      <point x="1054" y="672" type="curve" smooth="yes"/>
      <point x="1432" y="672" type="line"/>
      <point x="1439" y="715"/>
      <point x="1440" y="757"/>
      <point x="1440" y="799" type="curve" smooth="yes"/>
      <point x="1440" y="864"/>
      <point x="1429" y="929"/>
      <point x="1413" y="997.999" type="curve"/>
      <point x="1679" y="997.999" type="line"/>
      <point x="1632" y="1187" type="line"/>
      <point x="-53" y="1187" type="line"/>
      <point x="-2" y="997.999" type="line"/>
      <point x="1144" y="997.999" type="line"/>
      <point x="1148" y="970.999"/>
      <point x="1150" y="945"/>
      <point x="1150" y="919" type="curve" smooth="yes"/>
      <point x="1150" y="900"/>
      <point x="1149" y="881"/>
      <point x="1147" y="862" type="curve"/>
      <point x="905" y="862" type="line" smooth="yes"/>
      <point x="803" y="862"/>
      <point x="711" y="844"/>
      <point x="665" y="788" type="curve"/>
      <point x="555" y="839"/>
      <point x="482" y="846"/>
      <point x="395" y="846" type="curve" smooth="yes"/>
      <point x="191" y="846"/>
      <point x="51" y="729"/>
      <point x="51" y="532" type="curve" smooth="yes"/>
      <point x="51" y="315"/>
      <point x="338" y="130"/>
      <point x="540" y="130" type="curve" smooth="yes"/>
      <point x="566" y="130"/>
      <point x="596" y="130"/>
      <point x="629" y="134" type="curve"/>
      <point x="684" y="-122"/>
      <point x="997.999" y="-252"/>
      <point x="1412" y="-299" type="curve"/>
      <point x="1444" y="-180" type="line"/>
      <point x="988.999" y="-95.9999"/>
      <point x="926" y="49"/>
      <point x="926" y="171" type="curve" smooth="yes"/>
      <point x="926" y="308"/>
      <point x="1058" y="383"/>
      <point x="1182" y="383" type="curve" smooth="yes"/>
      <point x="1237" y="383"/>
      <point x="1297" y="378"/>
      <point x="1338" y="353" type="curve" smooth="yes"/>
      <point x="1348" y="347"/>
      <point x="1350" y="339"/>
      <point x="1350" y="330" type="curve" smooth="yes"/>
      <point x="1350" y="281"/>
      <point x="1302" y="207"/>
      <point x="1179" y="147" type="curve"/>
      <point x="1383" y="-64" type="line"/>
      <point x="1523" y="25"/>
      <point x="1542" y="84"/>
      <point x="1542" y="175" type="curve" smooth="yes"/>
      <point x="1544" y="375"/>
      <point x="1341" y="548"/>
      <point x="1108" y="548" type="curve" smooth="yes"/>
    </contour>
    <contour>
      <point x="418" y="308"/>
      <point x="404" y="310"/>
      <point x="397" y="317" type="curve"/>
      <point x="386" y="329"/>
      <point x="372" y="415"/>
      <point x="372" y="455" type="curve" smooth="yes"/>
      <point x="372" y="572"/>
      <point x="415" y="644"/>
      <point x="557" y="644" type="curve" smooth="yes"/>
      <point x="586" y="644"/>
      <point x="616" y="641"/>
      <point x="647" y="634" type="curve"/>
      <point x="671" y="579"/>
      <point x="724" y="526"/>
      <point x="786" y="476" type="curve"/>
      <point x="766" y="458" type="line"/>
      <point x="745" y="445"/>
      <point x="725" y="431"/>
      <point x="708" y="414" type="curve"/>
      <point x="602" y="341"/>
      <point x="497" y="308"/>
      <point x="435" y="308" type="curve" smooth="yes"/>
    </contour>
  </outline>
</glyph>
<glyph name="viramadeva_radeva" format="1">
  <advance width="0"/>
  <outline>
    <contour>
      <point x="614" y="-457" type="line"/>
      <point x="740" y="-322" type="line"/>
      <point x="255" y="113" type="line"/>
      <point x="-230" y="-282" type="line"/>
      <point x="-3" y="-467" type="line"/>
      <point x="287" y="-92" type="line"/>
    </contour>
  </outline>
</glyph>
<glyph name="zadeva_viramadeva" format="1">
  <advance width="1019"/>
  <outline>
    <contour>
      <point x="-48" y="1187" type="line"/>
      <point x="-0.999999" y="997.999" type="line"/>
      <point x="1064" y="997.999" type="line"/>
      <point x="1020" y="1187" type="line"/>
    </contour>
    <contour>
      <point x="1313" y="612" type="line"/>
      <point x="1268" y="802" type="line"/>
      <point x="485" y="802" type="line"/>
      <point x="520" y="655" type="line"/>
      <point x="653" y="597"/>
      <point x="706" y="543"/>
      <point x="706" y="460" type="curve" smooth="yes"/>
      <point x="706" y="392"/>
      <point x="658" y="330"/>
      <point x="570" y="330" type="curve" smooth="yes"/>
      <point x="450" y="330"/>
      <point x="331" y="411"/>
      <point x="205" y="756" type="curve"/>
      <point x="65" y="713" type="line"/>
      <point x="185" y="297"/>
      <point x="338" y="69"/>
      <point x="664" y="69" type="curve" smooth="yes"/>
      <point x="854" y="69"/>
      <point x="997.999" y="181"/>
      <point x="997.999" y="361" type="curve" smooth="yes"/>
      <point x="997.999" y="463"/>
      <point x="938" y="543"/>
      <point x="793" y="612" type="curve"/>
    </contour>
    <contour>
      <point x="261" y="105"/>
      <point x="127" y="-14"/>
      <point x="127" y="-79" type="curve" smooth="yes"/>
      <point x="127" y="-129"/>
      <point x="255" y="-263"/>
      <point x="308" y="-263" type="curve" smooth="yes"/>
      <point x="359" y="-263"/>
      <point x="493" y="-138"/>
      <point x="493" y="-79" type="curve" smooth="yes"/>
      <point x="493" y="-39"/>
      <point x="379" y="105"/>
      <point x="309" y="105" type="curve" smooth="yes"/>
    </contour>
  </outline>
</glyph>
